<svg xmlns="http://www.w3.org/2000/svg" xmlns:xlink="http://www.w3.org/1999/xlink" xmlns:lucid="lucid" width="2662" height="1325"><g transform="translate(2301 1661)" lucid:page-tab-id="0_0"><path d="M-2500-2000H500V0h-3000z" fill="#fff"/><path d="M-1100-1640h295.96v182H-1100z" stroke="#333" stroke-width="2" fill="#fff"/><path d="M-1100-1602.4h295.96m-295.96 72.23h295.96" stroke="#333" stroke-width="2" fill="none"/><use xlink:href="#a" transform="matrix(1,0,0,1,-1092,-1632) translate(109.57499999999999 14.6)"/><use xlink:href="#b" transform="matrix(1,0,0,1,-1088,-1594.4) translate(0 21.299999999999997)"/><use xlink:href="#c" transform="matrix(1,0,0,1,-1088,-1594.4) translate(64.95 21.299999999999997)"/><use xlink:href="#d" transform="matrix(1,0,0,1,-1088,-1594.4) translate(0 42.9)"/><use xlink:href="#e" transform="matrix(1,0,0,1,-1088,-1522.1686392899453) translate(0 21.299999999999997)"/><use xlink:href="#f" transform="matrix(1,0,0,1,-1088,-1522.1686392899453) translate(0 42.9)"/><path d="M-1620-1280h400v372h-400z" stroke="#333" stroke-width="2" fill="#fff"/><path d="M-1620-1242.4h400m-400 91.38h400" stroke="#333" stroke-width="2" fill="none"/><use xlink:href="#g" transform="matrix(1,0,0,1,-1612,-1272) translate(158.625 14.6)"/><use xlink:href="#h" transform="matrix(1,0,0,1,-1608,-1234.4) translate(0 41.6)"/><use xlink:href="#i" transform="matrix(1,0,0,1,-1608,-1143.0155989295165) translate(0 41.50000000000001)"/><use xlink:href="#j" transform="matrix(1,0,0,1,-1608,-1143.0155989295165) translate(0 63.10000000000001)"/><use xlink:href="#k" transform="matrix(1,0,0,1,-1608,-1143.0155989295165) translate(0 84.70000000000002)"/><use xlink:href="#l" transform="matrix(1,0,0,1,-1608,-1143.0155989295165) translate(0 106.30000000000003)"/><use xlink:href="#m" transform="matrix(1,0,0,1,-1608,-1143.0155989295165) translate(0 127.90000000000002)"/><use xlink:href="#n" transform="matrix(1,0,0,1,-1608,-1143.0155989295165) translate(0 149.50000000000003)"/><use xlink:href="#o" transform="matrix(1,0,0,1,-1608,-1143.0155989295165) translate(117.25000000000001 149.50000000000003)"/><use xlink:href="#p" transform="matrix(1,0,0,1,-1608,-1143.0155989295165) translate(167.25 149.50000000000003)"/><use xlink:href="#q" transform="matrix(1,0,0,1,-1608,-1143.0155989295165) translate(196.2 149.50000000000003)"/><use xlink:href="#r" transform="matrix(1,0,0,1,-1608,-1143.0155989295165) translate(215.14999999999998 149.50000000000003)"/><use xlink:href="#p" transform="matrix(1,0,0,1,-1608,-1143.0155989295165) translate(265.15 149.50000000000003)"/><use xlink:href="#q" transform="matrix(1,0,0,1,-1608,-1143.0155989295165) translate(294.09999999999997 149.50000000000003)"/><use xlink:href="#s" transform="matrix(1,0,0,1,-1608,-1143.0155989295165) translate(313.04999999999995 149.50000000000003)"/><use xlink:href="#t" transform="matrix(1,0,0,1,-1608,-1143.0155989295165) translate(0 171.1)"/><use xlink:href="#u" transform="matrix(1,0,0,1,-1608,-1143.0155989295165) translate(0 192.70000000000002)"/><path d="M-1620-640h300v283h-300z" stroke="#333" stroke-width="2" fill="#fff"/><path d="M-1620-602.4h300m-300 101.3h300" stroke="#333" stroke-width="2" fill="none"/><use xlink:href="#v" transform="matrix(1,0,0,1,-1612,-632) translate(87.625 14.6)"/><use xlink:href="#w" transform="matrix(1,0,0,1,-1608,-594.4) translate(0 25)"/><use xlink:href="#x" transform="matrix(1,0,0,1,-1608,-594.4) translate(0 46.6)"/><use xlink:href="#y" transform="matrix(1,0,0,1,-1608,-594.4) translate(0 68.2)"/><use xlink:href="#z" transform="matrix(1,0,0,1,-1608,-493.09999999999997) translate(0 24.89999999999999)"/><use xlink:href="#A" transform="matrix(1,0,0,1,-1608,-493.09999999999997) translate(0 46.49999999999999)"/><use xlink:href="#B" transform="matrix(1,0,0,1,-1608,-493.09999999999997) translate(0 68.1)"/><use xlink:href="#C" transform="matrix(1,0,0,1,-1608,-493.09999999999997) translate(0 89.70000000000002)"/><use xlink:href="#D" transform="matrix(1,0,0,1,-1608,-493.09999999999997) translate(0 111.30000000000001)"/><path d="M-640-1280h300v219h-300z" stroke="#333" stroke-width="2" fill="#fff"/><path d="M-640-1242.4h300m-300 79.7h300" stroke="#333" stroke-width="2" fill="none"/><use xlink:href="#E" transform="matrix(1,0,0,1,-632,-1272) translate(108.225 14.6)"/><use xlink:href="#F" transform="matrix(1,0,0,1,-628,-1234.4) translate(0 24.799999999999997)"/><use xlink:href="#G" transform="matrix(1,0,0,1,-628,-1234.4) translate(0 46.4)"/><use xlink:href="#H" transform="matrix(1,0,0,1,-628,-1154.7) translate(0 25)"/><use xlink:href="#I" transform="matrix(1,0,0,1,-628,-1154.7) translate(0 46.6)"/><use xlink:href="#J" transform="matrix(1,0,0,1,-628,-1154.7) translate(0 68.2)"/><path d="M-640-780h300v197h-300z" stroke="#333" stroke-width="2" fill="#fff"/><path d="M-640-742.4h300m-300 58.1h300" stroke="#333" stroke-width="2" fill="none"/><use xlink:href="#K" transform="matrix(1,0,0,1,-632,-772) translate(95.07499999999999 14.6)"/><use xlink:href="#L" transform="matrix(1,0,0,1,-628,-734.4) translate(0 25.1)"/><use xlink:href="#M" transform="matrix(1,0,0,1,-628,-734.4) translate(110.4 25.1)"/><use xlink:href="#N" transform="matrix(1,0,0,1,-628,-734.4) translate(125.9 25.1)"/><use xlink:href="#O" transform="matrix(1,0,0,1,-628,-676.3) translate(0 25)"/><use xlink:href="#P" transform="matrix(1,0,0,1,-628,-676.3) translate(0 46.6)"/><use xlink:href="#Q" transform="matrix(1,0,0,1,-628,-676.3) translate(0 68.2)"/><path d="M40-1302h300v262H40z" stroke="#333" stroke-width="2" fill="#fff"/><path d="M40-1264.4h300M40-1163.1h300" stroke="#333" stroke-width="2" fill="none"/><use xlink:href="#R" transform="matrix(1,0,0,1,48,-1294) translate(96.1 14.6)"/><use xlink:href="#S" transform="matrix(1,0,0,1,52,-1256.4) translate(0 25)"/><use xlink:href="#T" transform="matrix(1,0,0,1,52,-1256.4) translate(0 46.6)"/><use xlink:href="#U" transform="matrix(1,0,0,1,52,-1256.4) translate(0 68.2)"/><use xlink:href="#V" transform="matrix(1,0,0,1,52,-1155.1000000000001) translate(0 24.69999999999999)"/><use xlink:href="#W" transform="matrix(1,0,0,1,52,-1155.1000000000001) translate(0 46.29999999999999)"/><use xlink:href="#X" transform="matrix(1,0,0,1,52,-1155.1000000000001) translate(0 67.89999999999999)"/><use xlink:href="#Y" transform="matrix(1,0,0,1,52,-1155.1000000000001) translate(106.30000000000001 67.89999999999999)"/><use xlink:href="#Z" transform="matrix(1,0,0,1,52,-1155.1000000000001) translate(177.15000000000003 67.89999999999999)"/><use xlink:href="#aa" transform="matrix(1,0,0,1,52,-1155.1000000000001) translate(0 89.5)"/><use xlink:href="#ab" transform="matrix(1,0,0,1,52,-1155.1000000000001) translate(34.9 89.5)"/><path d="M-2280-1280h300v370h-300z" stroke="#333" stroke-width="2" fill="#fff"/><path d="M-2280-1242.4h300m-300 122.9h300" stroke="#333" stroke-width="2" fill="none"/><g><use xlink:href="#ac" transform="matrix(1,0,0,1,-2272,-1272) translate(106.57499999999999 14.6)"/></g><g><use xlink:href="#ad" transform="matrix(1,0,0,1,-2268,-1234.4) translate(0 24.69999999999999)"/><use xlink:href="#ae" transform="matrix(1,0,0,1,-2268,-1234.4) translate(0 46.29999999999999)"/><use xlink:href="#af" transform="matrix(1,0,0,1,-2268,-1234.4) translate(0 67.89999999999999)"/><use xlink:href="#ag" transform="matrix(1,0,0,1,-2268,-1234.4) translate(0 89.5)"/><use xlink:href="#M" transform="matrix(1,0,0,1,-2268,-1234.4) translate(150.95 89.5)"/><use xlink:href="#ah" transform="matrix(1,0,0,1,-2268,-1234.4) translate(166.45 89.5)"/></g><g><use xlink:href="#ai" transform="matrix(1,0,0,1,-2268,-1111.5) translate(0 25.000000000000007)"/><use xlink:href="#aj" transform="matrix(1,0,0,1,-2268,-1111.5) translate(0 46.60000000000001)"/><use xlink:href="#ak" transform="matrix(1,0,0,1,-2268,-1111.5) translate(0 68.20000000000002)"/><use xlink:href="#al" transform="matrix(1,0,0,1,-2268,-1111.5) translate(0 89.80000000000003)"/><use xlink:href="#am" transform="matrix(1,0,0,1,-2268,-1111.5) translate(0 111.40000000000002)"/><use xlink:href="#an" transform="matrix(1,0,0,1,-2268,-1111.5) translate(0 133)"/><use xlink:href="#ao" transform="matrix(1,0,0,1,-2268,-1111.5) translate(0 154.6)"/><use xlink:href="#ap" transform="matrix(1,0,0,1,-2268,-1111.5) translate(0 176.20000000000002)"/></g><path d="M-952.02-1438.5v63.5a6 6 0 0 0 6 6h464.35a6 6 0 0 1 6 6v81" stroke="#5e5e5e" stroke-width="2" fill="none"/><path d="M-952.02-1453.76l4.64 14.26h-9.27z" stroke="#5e5e5e" stroke-width="2" fill="#fff"/><path d="M-474.7-1281h-1.95v-1.03h1.95z" stroke="#5e5e5e" stroke-width=".05" fill="#5e5e5e"/><path d="M-1420-1282v-81a6 6 0 0 1 6-6h455.98a6 6 0 0 0 6-6v-63.5" stroke="#5e5e5e" stroke-width="2" fill="none"/><path d="M-1419.03-1281h-1.94v-1.03h1.94z" stroke="#5e5e5e" stroke-width=".05" fill="#5e5e5e"/><path d="M-952.02-1453.76l4.64 14.26h-9.27z" stroke="#5e5e5e" stroke-width="2" fill="#fff"/><path d="M-1218-1094h282a6 6 0 0 0 6-6v-64.5a6 6 0 0 1 6-6h282" stroke="#5e5e5e" stroke-width="2" fill="none"/><path d="M-1217.97-1093.03h-1.03v-1.94h1.03zM-641-1169.53h-1.03v-1.94h1.03z" stroke="#5e5e5e" stroke-width=".05" fill="#5e5e5e"/><path d="M-960-1214a6 6 0 0 1 6-6h228a6 6 0 0 1 6 6v48a6 6 0 0 1-6 6h-228a6 6 0 0 1-6-6z" stroke="#000" stroke-opacity="0" stroke-width="3" fill="#fff" fill-opacity="0"/><g><use xlink:href="#aq" transform="matrix(1,0,0,1,-955,-1215) translate(73.67283950617283 30.27777777777778)"/></g><path d="M-1160-1094a6 6 0 0 1 6-6h228a6 6 0 0 1 6 6v48a6 6 0 0 1-6 6h-228a6 6 0 0 1-6-6z" fill="none"/><g><use xlink:href="#ar" transform="matrix(1,0,0,1,-1160,-1100) translate(60.833333333333336 34.44444444444444)"/><use xlink:href="#as" transform="matrix(1,0,0,1,-1160,-1100) translate(134.84567901234567 34.44444444444444)"/></g><path d="M-720-1204a6 6 0 0 1 6-6h68a6 6 0 0 1 6 6v28a6 6 0 0 1-6 6h-68a6 6 0 0 1-6-6z" fill="none"/><g><use xlink:href="#at" transform="matrix(1,0,0,1,-720,-1210) translate(33.82716049382716 24.444444444444443)"/></g><path d="M-1220-1084a6 6 0 0 1 6-6h48a6 6 0 0 1 6 6v28a6 6 0 0 1-6 6h-48a6 6 0 0 1-6-6z" fill="none"/><g><use xlink:href="#at" transform="matrix(1,0,0,1,-1220,-1090) translate(23.82716049382716 24.444444444444443)"/></g><path d="M-1220-1134a6 6 0 0 1 6-6h48a6 6 0 0 1 6 6v28a6 6 0 0 1-6 6h-48a6 6 0 0 1-6-6z" fill="none"/><g><use xlink:href="#au" transform="matrix(1,0,0,1,-1220,-1140) translate(25.679012345679013 24.444444444444443)"/></g><path d="M-720-1164a6 6 0 0 1 6-6h78a6 6 0 0 1 6 6v38a6 6 0 0 1-6 6h-78a6 6 0 0 1-6-6z" fill="none"/><g><use xlink:href="#au" transform="matrix(1,0,0,1,-720,-1170) translate(40.67901234567901 29.444444444444443)"/></g><path d="M-490-782v-259.5" stroke="#5e5e5e" stroke-width="2" fill="none"/><path d="M-489.02-781h-1.96v-1.03h1.96z" stroke="#5e5e5e" stroke-width=".05" fill="#5e5e5e"/><path d="M-490-1056.76l4.63 14.26h-9.26z" stroke="#5e5e5e" stroke-width="2" fill="#fff"/><path d="M-1420-906v10.27m0 10.27v20.54m0 10.27v20.54m0 10.27v20.54m0 10.28v20.54m0 10.27v20.53m0 10.27v20.54m0 10.27v20.56m0 10.27v10.27" stroke="#5e5e5e" stroke-width="2" fill="none"/><path d="M-1419.03-905.97h-1.94V-907h1.94z" stroke="#5e5e5e" stroke-width=".05" fill="#5e5e5e"/><path d="M-1420-644.24l-4.63-14.26h9.27z" stroke="#5e5e5e" stroke-width="2" fill="#5e5e5e"/><path d="M-338-1170.5h187.75a.25.25 0 0 0 .25-.25.25.25 0 0 1 .25-.25h158" stroke="#5e5e5e" stroke-width="2" fill="none"/><path d="M-337.97-1169.53H-339v-1.94h1.03z" stroke="#5e5e5e" stroke-width=".05" fill="#5e5e5e"/><path d="M37.6-1171l-14.86 14.85L7.6-1171l15.14-14.85z" stroke="#5e5e5e" stroke-width="2" fill="#fff"/><path d="M-1622-1094h-326.25" stroke="#5e5e5e" stroke-width="2" fill="none"/><path d="M-1621-1093.03h-1.03v-1.94h1.03z" stroke="#5e5e5e" stroke-width=".05" fill="#5e5e5e"/><path d="M-1977.6-1094l14.86-14.85 15.15 14.85-15.14 14.85z" stroke="#5e5e5e" stroke-width="2" fill="#fff"/><defs><path fill="#333" d="M186 0v-106H76V0H24v-248h52v99h110v-99h50V0h-50" id="av"/><path fill="#333" d="M85 4C-2 5 27-109 22-190h50c7 57-23 150 33 157 60-5 35-97 40-157h50l1 190h-47c-2-12 1-28-3-38-12 25-28 42-61 42" id="aw"/><path fill="#333" d="M220-157c-53 9-28 100-34 157h-49v-107c1-27-5-49-29-50C55-147 81-57 75 0H25l-1-190h47c2 12-1 28 3 38 10-53 101-56 108 0 13-22 24-43 59-42 82 1 51 116 57 194h-49v-107c-1-25-5-48-29-50" id="ax"/><path fill="#333" d="M133-34C117-15 103 5 69 4 32 3 11-16 11-54c-1-60 55-63 116-61 1-26-3-47-28-47-18 1-26 9-28 27l-52-2c7-38 36-58 82-57s74 22 75 68l1 82c-1 14 12 18 25 15v27c-30 8-71 5-69-32zm-48 3c29 0 43-24 42-57-32 0-66-3-65 30 0 17 8 27 23 27" id="ay"/><path fill="#333" d="M135-194c87-1 58 113 63 194h-50c-7-57 23-157-34-157-59 0-34 97-39 157H25l-1-190h47c2 12-1 28 3 38 12-26 28-41 61-42" id="az"/><g id="a"><use transform="matrix(0.05,0,0,0.05,0,0)" xlink:href="#av"/><use transform="matrix(0.05,0,0,0.05,12.950000000000001,0)" xlink:href="#aw"/><use transform="matrix(0.05,0,0,0.05,23.900000000000002,0)" xlink:href="#ax"/><use transform="matrix(0.05,0,0,0.05,39.900000000000006,0)" xlink:href="#ay"/><use transform="matrix(0.05,0,0,0.05,49.900000000000006,0)" xlink:href="#az"/></g><path fill="#333" d="M158-156l-14 65h45v19h-49L124 0h-19l15-72H56L41 0H22l15-72H2v-19h39l14-65H11v-19h48l15-71h20l-16 71h64l16-71h19l-16 71h37v19h-40zm-83 0L61-91h63l14-65H75" id="aA"/><path fill="#333" d="M117-194c89-4 53 116 60 194h-32v-121c0-31-8-49-39-48C34-167 62-67 57 0H25l-1-190h30c1 10-1 24 2 32 11-22 29-35 61-36" id="aB"/><path fill="#333" d="M141-36C126-15 110 5 73 4 37 3 15-17 15-53c-1-64 63-63 125-63 3-35-9-54-41-54-24 1-41 7-42 31l-33-3c5-37 33-52 76-52 45 0 72 20 72 64v82c-1 20 7 32 28 27v20c-31 9-61-2-59-35zM48-53c0 20 12 33 32 33 41-3 63-29 60-74-43 2-92-5-92 41" id="aC"/><path fill="#333" d="M210-169c-67 3-38 105-44 169h-31v-121c0-29-5-50-35-48C34-165 62-65 56 0H25l-1-190h30c1 10-1 24 2 32 10-44 99-50 107 0 11-21 27-35 58-36 85-2 47 119 55 194h-31v-121c0-29-5-49-35-48" id="aD"/><path fill="#333" d="M100-194c63 0 86 42 84 106H49c0 40 14 67 53 68 26 1 43-12 49-29l28 8c-11 28-37 45-77 45C44 4 14-33 15-96c1-61 26-98 85-98zm52 81c6-60-76-77-97-28-3 7-6 17-6 28h103" id="aE"/><path fill="#333" d="M33-154v-36h34v36H33zM33 0v-36h34V0H33" id="aF"/><g id="b"><use transform="matrix(0.05,0,0,0.05,0,0)" xlink:href="#aA"/><use transform="matrix(0.05,0,0,0.05,10,0)" xlink:href="#aB"/><use transform="matrix(0.05,0,0,0.05,20,0)" xlink:href="#aC"/><use transform="matrix(0.05,0,0,0.05,30,0)" xlink:href="#aD"/><use transform="matrix(0.05,0,0,0.05,44.95,0)" xlink:href="#aE"/><use transform="matrix(0.05,0,0,0.05,54.95,0)" xlink:href="#aF"/></g><path fill="#333" d="M135-143c-3-34-86-38-87 0 15 53 115 12 119 90S17 21 10-45l28-5c4 36 97 45 98 0-10-56-113-15-118-90-4-57 82-63 122-42 12 7 21 19 24 35" id="aG"/><path fill="#333" d="M59-47c-2 24 18 29 38 22v24C64 9 27 4 27-40v-127H5v-23h24l9-43h21v43h35v23H59v120" id="aH"/><path fill="#333" d="M114-163C36-179 61-72 57 0H25l-1-190h30c1 12-1 29 2 39 6-27 23-49 58-41v29" id="aI"/><g id="c"><use transform="matrix(0.05,0,0,0.05,0,0)" xlink:href="#aG"/><use transform="matrix(0.05,0,0,0.05,9,0)" xlink:href="#aH"/><use transform="matrix(0.05,0,0,0.05,14,0)" xlink:href="#aI"/></g><path fill="#333" d="M177-190C167-65 218 103 67 71c-23-6-38-20-44-43l32-5c15 47 100 32 89-28v-30C133-14 115 1 83 1 29 1 15-40 15-95c0-56 16-97 71-98 29-1 48 16 59 35 1-10 0-23 2-32h30zM94-22c36 0 50-32 50-73 0-42-14-75-50-75-39 0-46 34-46 75s6 73 46 73" id="aJ"/><path fill="#333" d="M24-231v-30h32v30H24zM24 0v-190h32V0H24" id="aK"/><g id="d"><use transform="matrix(0.05,0,0,0.05,0,0)" xlink:href="#aA"/><use transform="matrix(0.05,0,0,0.05,10,0)" xlink:href="#aC"/><use transform="matrix(0.05,0,0,0.05,20,0)" xlink:href="#aJ"/><use transform="matrix(0.05,0,0,0.05,30,0)" xlink:href="#aE"/><use transform="matrix(0.05,0,0,0.05,40,0)" xlink:href="#aF"/><use transform="matrix(0.05,0,0,0.05,45,0)" xlink:href="#aK"/><use transform="matrix(0.05,0,0,0.05,48.95,0)" xlink:href="#aB"/><use transform="matrix(0.05,0,0,0.05,58.95,0)" xlink:href="#aH"/></g><path fill="#333" d="M118-107v75H92v-75H18v-26h74v-75h26v75h74v26h-74" id="aL"/><path fill="#333" d="M-5 72V49h209v23H-5" id="aM"/><path fill="#333" d="M87 75C49 33 22-17 22-94c0-76 28-126 65-167h31c-38 41-64 92-64 168S80 34 118 75H87" id="aN"/><path fill="#333" d="M33-261c38 41 65 92 65 168S71 34 33 75H2C39 34 66-17 66-93S39-220 2-261h31" id="aO"/><g id="e"><use transform="matrix(0.05,0,0,0.05,0,0)" xlink:href="#aL"/><use transform="matrix(0.05,0,0,0.05,10.5,0)" xlink:href="#aJ"/><use transform="matrix(0.05,0,0,0.05,20.5,0)" xlink:href="#aE"/><use transform="matrix(0.05,0,0,0.05,30.5,0)" xlink:href="#aH"/><use transform="matrix(0.05,0,0,0.05,35.5,0)" xlink:href="#aM"/><use transform="matrix(0.05,0,0,0.05,45.5,0)" xlink:href="#aB"/><use transform="matrix(0.05,0,0,0.05,55.5,0)" xlink:href="#aC"/><use transform="matrix(0.05,0,0,0.05,65.5,0)" xlink:href="#aD"/><use transform="matrix(0.05,0,0,0.05,80.45,0)" xlink:href="#aE"/><use transform="matrix(0.05,0,0,0.05,90.45,0)" xlink:href="#aN"/><use transform="matrix(0.05,0,0,0.05,96.4,0)" xlink:href="#aO"/><use transform="matrix(0.05,0,0,0.05,102.35000000000001,0)" xlink:href="#aF"/><use transform="matrix(0.05,0,0,0.05,107.35000000000001,0)" xlink:href="#aG"/><use transform="matrix(0.05,0,0,0.05,116.35000000000001,0)" xlink:href="#aH"/><use transform="matrix(0.05,0,0,0.05,121.35000000000001,0)" xlink:href="#aI"/></g><g id="f"><use transform="matrix(0.05,0,0,0.05,0,0)" xlink:href="#aL"/><use transform="matrix(0.05,0,0,0.05,10.5,0)" xlink:href="#aJ"/><use transform="matrix(0.05,0,0,0.05,20.5,0)" xlink:href="#aE"/><use transform="matrix(0.05,0,0,0.05,30.5,0)" xlink:href="#aH"/><use transform="matrix(0.05,0,0,0.05,35.5,0)" xlink:href="#aM"/><use transform="matrix(0.05,0,0,0.05,45.5,0)" xlink:href="#aC"/><use transform="matrix(0.05,0,0,0.05,55.5,0)" xlink:href="#aJ"/><use transform="matrix(0.05,0,0,0.05,65.5,0)" xlink:href="#aE"/><use transform="matrix(0.05,0,0,0.05,75.5,0)" xlink:href="#aN"/><use transform="matrix(0.05,0,0,0.05,81.45,0)" xlink:href="#aO"/><use transform="matrix(0.05,0,0,0.05,87.4,0)" xlink:href="#aF"/><use transform="matrix(0.05,0,0,0.05,92.4,0)" xlink:href="#aK"/><use transform="matrix(0.05,0,0,0.05,96.35000000000001,0)" xlink:href="#aB"/><use transform="matrix(0.05,0,0,0.05,106.35000000000001,0)" xlink:href="#aH"/></g><path fill="#333" d="M169-182c-1-43-94-46-97-3 18 66 151 10 154 114 3 95-165 93-204 36-6-8-10-19-12-30l50-8c3 46 112 56 116 5-17-69-150-10-154-114-4-87 153-88 188-35 5 8 8 18 10 28" id="aP"/><path fill="#333" d="M115-3C79 11 28 4 28-45v-112H4v-33h27l15-45h31v45h36v33H77v99c-1 23 16 31 38 25v30" id="aQ"/><path fill="#333" d="M88-194c31-1 46 15 58 34l-1-101h50l1 261h-48c-2-10 0-23-3-31C134-8 116 4 84 4 32 4 16-41 15-95c0-56 19-97 73-99zm17 164c33 0 40-30 41-66 1-37-9-64-41-64s-38 30-39 65c0 43 13 65 39 65" id="aR"/><path fill="#333" d="M185-48c-13 30-37 53-82 52C43 2 14-33 14-96s30-98 90-98c62 0 83 45 84 108H66c0 31 8 55 39 56 18 0 30-7 34-22zm-45-69c5-46-57-63-70-21-2 6-4 13-4 21h74" id="aS"/><g id="g"><use transform="matrix(0.05,0,0,0.05,0,0)" xlink:href="#aP"/><use transform="matrix(0.05,0,0,0.05,12,0)" xlink:href="#aQ"/><use transform="matrix(0.05,0,0,0.05,17.95,0)" xlink:href="#aw"/><use transform="matrix(0.05,0,0,0.05,28.899999999999995,0)" xlink:href="#aR"/><use transform="matrix(0.05,0,0,0.05,39.85,0)" xlink:href="#aS"/><use transform="matrix(0.05,0,0,0.05,49.85,0)" xlink:href="#az"/><use transform="matrix(0.05,0,0,0.05,60.800000000000004,0)" xlink:href="#aQ"/></g><path fill="#333" d="M85-194c31 0 48 13 60 33l-1-100h32l1 261h-30c-2-10 0-23-3-31C134-8 116 4 85 4 32 4 16-35 15-94c0-66 23-100 70-100zm9 24c-40 0-46 34-46 75 0 40 6 74 45 74 42 0 51-32 51-76 0-42-9-74-50-73" id="aT"/><path fill="#333" d="M115-194c55 1 70 41 70 98S169 2 115 4C84 4 66-9 55-30l1 105H24l-1-265h31l2 30c10-21 28-34 59-34zm-8 174c40 0 45-34 45-75s-6-73-45-74c-42 0-51 32-51 76 0 43 10 73 51 73" id="aU"/><path fill="#333" d="M24 0v-261h32V0H24" id="aV"/><path fill="#333" d="M100-194c62-1 85 37 85 99 1 63-27 99-86 99S16-35 15-95c0-66 28-99 85-99zM99-20c44 1 53-31 53-75 0-43-8-75-51-75s-53 32-53 75 10 74 51 75" id="aW"/><path fill="#333" d="M30-248c118-7 216 8 213 122C240-48 200 0 122 0H30v-248zM63-27c89 8 146-16 146-99s-60-101-146-95v194" id="aX"/><g id="h"><use transform="matrix(0.05,0,0,0.05,0,0)" xlink:href="#aL"/><use transform="matrix(0.05,0,0,0.05,10.5,0)" xlink:href="#aT"/><use transform="matrix(0.05,0,0,0.05,20.5,0)" xlink:href="#aK"/><use transform="matrix(0.05,0,0,0.05,24.45,0)" xlink:href="#aU"/><use transform="matrix(0.05,0,0,0.05,34.45,0)" xlink:href="#aV"/><use transform="matrix(0.05,0,0,0.05,38.400000000000006,0)" xlink:href="#aW"/><use transform="matrix(0.05,0,0,0.05,48.400000000000006,0)" xlink:href="#aD"/><use transform="matrix(0.05,0,0,0.05,63.35,0)" xlink:href="#aC"/><use transform="matrix(0.05,0,0,0.05,73.35000000000001,0)" xlink:href="#aF"/><use transform="matrix(0.05,0,0,0.05,78.35000000000001,0)" xlink:href="#aX"/><use transform="matrix(0.05,0,0,0.05,91.30000000000001,0)" xlink:href="#aK"/><use transform="matrix(0.05,0,0,0.05,95.25000000000001,0)" xlink:href="#aU"/><use transform="matrix(0.05,0,0,0.05,105.25,0)" xlink:href="#aV"/><use transform="matrix(0.05,0,0,0.05,109.2,0)" xlink:href="#aW"/><use transform="matrix(0.05,0,0,0.05,119.2,0)" xlink:href="#aD"/><use transform="matrix(0.05,0,0,0.05,134.15,0)" xlink:href="#aC"/></g><path fill="#333" d="M84 4C-5 8 30-112 23-190h32v120c0 31 7 50 39 49 72-2 45-101 50-169h31l1 190h-30c-1-10 1-25-2-33-11 22-28 36-60 37" id="aY"/><path fill="#333" d="M101-234c-31-9-42 10-38 44h38v23H63V0H32v-167H5v-23h27c-7-52 17-82 69-68v24" id="aZ"/><g id="i"><use transform="matrix(0.05,0,0,0.05,0,0)" xlink:href="#aL"/><use transform="matrix(0.05,0,0,0.05,10.5,0)" xlink:href="#aG"/><use transform="matrix(0.05,0,0,0.05,19.5,0)" xlink:href="#aH"/><use transform="matrix(0.05,0,0,0.05,24.5,0)" xlink:href="#aY"/><use transform="matrix(0.05,0,0,0.05,34.5,0)" xlink:href="#aT"/><use transform="matrix(0.05,0,0,0.05,44.5,0)" xlink:href="#aE"/><use transform="matrix(0.05,0,0,0.05,54.5,0)" xlink:href="#aB"/><use transform="matrix(0.05,0,0,0.05,64.5,0)" xlink:href="#aH"/><use transform="matrix(0.05,0,0,0.05,69.5,0)" xlink:href="#aM"/><use transform="matrix(0.05,0,0,0.05,79.5,0)" xlink:href="#aK"/><use transform="matrix(0.05,0,0,0.05,83.45,0)" xlink:href="#aB"/><use transform="matrix(0.05,0,0,0.05,93.45,0)" xlink:href="#aZ"/><use transform="matrix(0.05,0,0,0.05,98.45,0)" xlink:href="#aW"/><use transform="matrix(0.05,0,0,0.05,108.45,0)" xlink:href="#aN"/><use transform="matrix(0.05,0,0,0.05,114.4,0)" xlink:href="#aO"/><use transform="matrix(0.05,0,0,0.05,120.35000000000001,0)" xlink:href="#aF"/><use transform="matrix(0.05,0,0,0.05,125.35000000000001,0)" xlink:href="#aG"/><use transform="matrix(0.05,0,0,0.05,134.35000000000002,0)" xlink:href="#aH"/><use transform="matrix(0.05,0,0,0.05,139.35000000000002,0)" xlink:href="#aI"/></g><path fill="#333" d="M30-248c87 1 191-15 191 75 0 78-77 80-158 76V0H30v-248zm33 125c57 0 124 11 124-50 0-59-68-47-124-48v98" id="ba"/><g id="j"><use transform="matrix(0.05,0,0,0.05,0,0)" xlink:href="#aL"/><use transform="matrix(0.05,0,0,0.05,10.5,0)" xlink:href="#aU"/><use transform="matrix(0.05,0,0,0.05,20.5,0)" xlink:href="#aI"/><use transform="matrix(0.05,0,0,0.05,26.450000000000003,0)" xlink:href="#aE"/><use transform="matrix(0.05,0,0,0.05,36.45,0)" xlink:href="#aU"/><use transform="matrix(0.05,0,0,0.05,46.45,0)" xlink:href="#aC"/><use transform="matrix(0.05,0,0,0.05,56.45,0)" xlink:href="#aI"/><use transform="matrix(0.05,0,0,0.05,62.400000000000006,0)" xlink:href="#aK"/><use transform="matrix(0.05,0,0,0.05,66.35000000000001,0)" xlink:href="#aB"/><use transform="matrix(0.05,0,0,0.05,76.35000000000001,0)" xlink:href="#aJ"/><use transform="matrix(0.05,0,0,0.05,86.35000000000001,0)" xlink:href="#aM"/><use transform="matrix(0.05,0,0,0.05,96.35000000000001,0)" xlink:href="#aU"/><use transform="matrix(0.05,0,0,0.05,106.35000000000001,0)" xlink:href="#aI"/><use transform="matrix(0.05,0,0,0.05,112.30000000000001,0)" xlink:href="#aE"/><use transform="matrix(0.05,0,0,0.05,122.30000000000001,0)" xlink:href="#aG"/><use transform="matrix(0.05,0,0,0.05,131.3,0)" xlink:href="#aE"/><use transform="matrix(0.05,0,0,0.05,141.3,0)" xlink:href="#aB"/><use transform="matrix(0.05,0,0,0.05,151.3,0)" xlink:href="#aH"/><use transform="matrix(0.05,0,0,0.05,156.3,0)" xlink:href="#aC"/><use transform="matrix(0.05,0,0,0.05,166.3,0)" xlink:href="#aH"/><use transform="matrix(0.05,0,0,0.05,171.3,0)" xlink:href="#aK"/><use transform="matrix(0.05,0,0,0.05,175.25,0)" xlink:href="#aW"/><use transform="matrix(0.05,0,0,0.05,185.25,0)" xlink:href="#aB"/><use transform="matrix(0.05,0,0,0.05,195.25,0)" xlink:href="#aM"/><use transform="matrix(0.05,0,0,0.05,205.25,0)" xlink:href="#aI"/><use transform="matrix(0.05,0,0,0.05,211.19999999999996,0)" xlink:href="#aE"/><use transform="matrix(0.05,0,0,0.05,221.19999999999996,0)" xlink:href="#aU"/><use transform="matrix(0.05,0,0,0.05,231.19999999999996,0)" xlink:href="#aW"/><use transform="matrix(0.05,0,0,0.05,241.19999999999996,0)" xlink:href="#aI"/><use transform="matrix(0.05,0,0,0.05,247.14999999999998,0)" xlink:href="#aH"/><use transform="matrix(0.05,0,0,0.05,252.14999999999998,0)" xlink:href="#aN"/><use transform="matrix(0.05,0,0,0.05,258.09999999999997,0)" xlink:href="#aO"/><use transform="matrix(0.05,0,0,0.05,264.04999999999995,0)" xlink:href="#aF"/><use transform="matrix(0.05,0,0,0.05,269.04999999999995,0)" xlink:href="#ba"/><use transform="matrix(0.05,0,0,0.05,281.04999999999995,0)" xlink:href="#aI"/><use transform="matrix(0.05,0,0,0.05,286.99999999999994,0)" xlink:href="#aE"/><use transform="matrix(0.05,0,0,0.05,296.99999999999994,0)" xlink:href="#aG"/><use transform="matrix(0.05,0,0,0.05,305.99999999999994,0)" xlink:href="#aE"/><use transform="matrix(0.05,0,0,0.05,315.99999999999994,0)" xlink:href="#aB"/><use transform="matrix(0.05,0,0,0.05,325.99999999999994,0)" xlink:href="#aH"/><use transform="matrix(0.05,0,0,0.05,330.99999999999994,0)" xlink:href="#aC"/><use transform="matrix(0.05,0,0,0.05,340.99999999999994,0)" xlink:href="#aH"/><use transform="matrix(0.05,0,0,0.05,345.99999999999994,0)" xlink:href="#aK"/><use transform="matrix(0.05,0,0,0.05,349.94999999999993,0)" xlink:href="#aW"/><use transform="matrix(0.05,0,0,0.05,359.94999999999993,0)" xlink:href="#aB"/></g><path fill="#333" d="M108 0H70L1-190h34L89-25l56-165h34" id="bb"/><path fill="#333" d="M206 0h-36l-40-164L89 0H53L-1-190h32L70-26l43-164h34l41 164 42-164h31" id="bc"/><path fill="#333" d="M96-169c-40 0-48 33-48 73s9 75 48 75c24 0 41-14 43-38l32 2c-6 37-31 61-74 61-59 0-76-41-82-99-10-93 101-131 147-64 4 7 5 14 7 22l-32 3c-4-21-16-35-41-35" id="bd"/><g id="k"><use transform="matrix(0.05,0,0,0.05,0,0)" xlink:href="#aL"/><use transform="matrix(0.05,0,0,0.05,10.5,0)" xlink:href="#aI"/><use transform="matrix(0.05,0,0,0.05,16.45,0)" xlink:href="#aE"/><use transform="matrix(0.05,0,0,0.05,26.450000000000003,0)" xlink:href="#bb"/><use transform="matrix(0.05,0,0,0.05,35.45,0)" xlink:href="#aK"/><use transform="matrix(0.05,0,0,0.05,39.400000000000006,0)" xlink:href="#aE"/><use transform="matrix(0.05,0,0,0.05,49.400000000000006,0)" xlink:href="#bc"/><use transform="matrix(0.05,0,0,0.05,62.35,0)" xlink:href="#aK"/><use transform="matrix(0.05,0,0,0.05,66.30000000000001,0)" xlink:href="#aB"/><use transform="matrix(0.05,0,0,0.05,76.30000000000001,0)" xlink:href="#aJ"/><use transform="matrix(0.05,0,0,0.05,86.30000000000001,0)" xlink:href="#aM"/><use transform="matrix(0.05,0,0,0.05,96.30000000000001,0)" xlink:href="#bd"/><use transform="matrix(0.05,0,0,0.05,105.30000000000001,0)" xlink:href="#aW"/><use transform="matrix(0.05,0,0,0.05,115.30000000000001,0)" xlink:href="#aI"/><use transform="matrix(0.05,0,0,0.05,121.25,0)" xlink:href="#aI"/><use transform="matrix(0.05,0,0,0.05,127.2,0)" xlink:href="#aE"/><use transform="matrix(0.05,0,0,0.05,137.20000000000002,0)" xlink:href="#bd"/><use transform="matrix(0.05,0,0,0.05,146.20000000000002,0)" xlink:href="#aH"/><use transform="matrix(0.05,0,0,0.05,151.20000000000002,0)" xlink:href="#aK"/><use transform="matrix(0.05,0,0,0.05,155.15,0)" xlink:href="#aB"/><use transform="matrix(0.05,0,0,0.05,165.15,0)" xlink:href="#aJ"/><use transform="matrix(0.05,0,0,0.05,175.15,0)" xlink:href="#aM"/><use transform="matrix(0.05,0,0,0.05,185.15,0)" xlink:href="#aI"/><use transform="matrix(0.05,0,0,0.05,191.1,0)" xlink:href="#aE"/><use transform="matrix(0.05,0,0,0.05,201.1,0)" xlink:href="#aU"/><use transform="matrix(0.05,0,0,0.05,211.10000000000002,0)" xlink:href="#aW"/><use transform="matrix(0.05,0,0,0.05,221.10000000000002,0)" xlink:href="#aI"/><use transform="matrix(0.05,0,0,0.05,227.04999999999995,0)" xlink:href="#aH"/><use transform="matrix(0.05,0,0,0.05,232.04999999999995,0)" xlink:href="#aN"/><use transform="matrix(0.05,0,0,0.05,237.99999999999997,0)" xlink:href="#aO"/><use transform="matrix(0.05,0,0,0.05,243.94999999999996,0)" xlink:href="#aF"/><use transform="matrix(0.05,0,0,0.05,248.94999999999996,0)" xlink:href="#aG"/><use transform="matrix(0.05,0,0,0.05,257.94999999999993,0)" xlink:href="#aH"/><use transform="matrix(0.05,0,0,0.05,262.94999999999993,0)" xlink:href="#aI"/></g><path fill="#333" d="M106-169C34-169 62-67 57 0H25v-261h32l-1 103c12-21 28-36 61-36 89 0 53 116 60 194h-32v-121c2-32-8-49-39-48" id="be"/><g id="l"><use transform="matrix(0.05,0,0,0.05,0,0)" xlink:href="#aL"/><use transform="matrix(0.05,0,0,0.05,10.5,0)" xlink:href="#bd"/><use transform="matrix(0.05,0,0,0.05,19.5,0)" xlink:href="#aW"/><use transform="matrix(0.05,0,0,0.05,29.5,0)" xlink:href="#aB"/><use transform="matrix(0.05,0,0,0.05,39.5,0)" xlink:href="#aT"/><use transform="matrix(0.05,0,0,0.05,49.5,0)" xlink:href="#aY"/><use transform="matrix(0.05,0,0,0.05,59.5,0)" xlink:href="#bd"/><use transform="matrix(0.05,0,0,0.05,68.5,0)" xlink:href="#aH"/><use transform="matrix(0.05,0,0,0.05,73.5,0)" xlink:href="#aK"/><use transform="matrix(0.05,0,0,0.05,77.45,0)" xlink:href="#aB"/><use transform="matrix(0.05,0,0,0.05,87.45,0)" xlink:href="#aJ"/><use transform="matrix(0.05,0,0,0.05,97.45,0)" xlink:href="#aM"/><use transform="matrix(0.05,0,0,0.05,107.45,0)" xlink:href="#aT"/><use transform="matrix(0.05,0,0,0.05,117.45,0)" xlink:href="#aE"/><use transform="matrix(0.05,0,0,0.05,127.45,0)" xlink:href="#aZ"/><use transform="matrix(0.05,0,0,0.05,132.45,0)" xlink:href="#aE"/><use transform="matrix(0.05,0,0,0.05,142.45,0)" xlink:href="#aB"/><use transform="matrix(0.05,0,0,0.05,152.45,0)" xlink:href="#aG"/><use transform="matrix(0.05,0,0,0.05,161.45,0)" xlink:href="#aE"/><use transform="matrix(0.05,0,0,0.05,171.45,0)" xlink:href="#aM"/><use transform="matrix(0.05,0,0,0.05,181.45,0)" xlink:href="#aI"/><use transform="matrix(0.05,0,0,0.05,187.39999999999998,0)" xlink:href="#aE"/><use transform="matrix(0.05,0,0,0.05,197.39999999999998,0)" xlink:href="#be"/><use transform="matrix(0.05,0,0,0.05,207.39999999999998,0)" xlink:href="#aE"/><use transform="matrix(0.05,0,0,0.05,217.39999999999998,0)" xlink:href="#aC"/><use transform="matrix(0.05,0,0,0.05,227.39999999999998,0)" xlink:href="#aI"/><use transform="matrix(0.05,0,0,0.05,233.34999999999997,0)" xlink:href="#aG"/><use transform="matrix(0.05,0,0,0.05,242.34999999999997,0)" xlink:href="#aC"/><use transform="matrix(0.05,0,0,0.05,252.34999999999997,0)" xlink:href="#aV"/><use transform="matrix(0.05,0,0,0.05,256.29999999999995,0)" xlink:href="#aG"/><use transform="matrix(0.05,0,0,0.05,265.29999999999995,0)" xlink:href="#aN"/><use transform="matrix(0.05,0,0,0.05,271.24999999999994,0)" xlink:href="#aK"/><use transform="matrix(0.05,0,0,0.05,275.19999999999993,0)" xlink:href="#aB"/></g><path fill="#333" d="M27 0v-27h64v-190l-56 39v-29l58-41h29v221h61V0H27" id="bf"/><g id="m"><use transform="matrix(0.05,0,0,0.05,0,0)" xlink:href="#aU"/><use transform="matrix(0.05,0,0,0.05,10,0)" xlink:href="#aI"/><use transform="matrix(0.05,0,0,0.05,15.949999999999998,0)" xlink:href="#aE"/><use transform="matrix(0.05,0,0,0.05,25.950000000000003,0)" xlink:href="#aG"/><use transform="matrix(0.05,0,0,0.05,34.95,0)" xlink:href="#bf"/><use transform="matrix(0.05,0,0,0.05,44.95,0)" xlink:href="#aF"/><use transform="matrix(0.05,0,0,0.05,49.95,0)" xlink:href="#ba"/><use transform="matrix(0.05,0,0,0.05,61.95,0)" xlink:href="#aI"/><use transform="matrix(0.05,0,0,0.05,67.9,0)" xlink:href="#aE"/><use transform="matrix(0.05,0,0,0.05,77.9,0)" xlink:href="#aG"/><use transform="matrix(0.05,0,0,0.05,86.9,0)" xlink:href="#aE"/><use transform="matrix(0.05,0,0,0.05,96.9,0)" xlink:href="#aB"/><use transform="matrix(0.05,0,0,0.05,106.9,0)" xlink:href="#aH"/><use transform="matrix(0.05,0,0,0.05,111.9,0)" xlink:href="#aC"/><use transform="matrix(0.05,0,0,0.05,121.9,0)" xlink:href="#aH"/><use transform="matrix(0.05,0,0,0.05,126.9,0)" xlink:href="#aK"/><use transform="matrix(0.05,0,0,0.05,130.85,0)" xlink:href="#aW"/><use transform="matrix(0.05,0,0,0.05,140.85,0)" xlink:href="#aB"/><use transform="matrix(0.05,0,0,0.05,150.85,0)" xlink:href="#aO"/><use transform="matrix(0.05,0,0,0.05,156.79999999999998,0)" xlink:href="#aF"/><use transform="matrix(0.05,0,0,0.05,161.79999999999998,0)" xlink:href="#aG"/><use transform="matrix(0.05,0,0,0.05,170.79999999999998,0)" xlink:href="#aH"/><use transform="matrix(0.05,0,0,0.05,175.79999999999998,0)" xlink:href="#aI"/></g><g id="n"><use transform="matrix(0.05,0,0,0.05,0,0)" xlink:href="#aL"/><use transform="matrix(0.05,0,0,0.05,10.5,0)" xlink:href="#aC"/><use transform="matrix(0.05,0,0,0.05,20.5,0)" xlink:href="#aB"/><use transform="matrix(0.05,0,0,0.05,30.5,0)" xlink:href="#aG"/><use transform="matrix(0.05,0,0,0.05,39.5,0)" xlink:href="#bc"/><use transform="matrix(0.05,0,0,0.05,52.45,0)" xlink:href="#aE"/><use transform="matrix(0.05,0,0,0.05,62.45,0)" xlink:href="#aI"/><use transform="matrix(0.05,0,0,0.05,68.4,0)" xlink:href="#aK"/><use transform="matrix(0.05,0,0,0.05,72.35000000000001,0)" xlink:href="#aB"/><use transform="matrix(0.05,0,0,0.05,82.35000000000001,0)" xlink:href="#aJ"/><use transform="matrix(0.05,0,0,0.05,92.35000000000001,0)" xlink:href="#aN"/><use transform="matrix(0.05,0,0,0.05,98.30000000000001,0)" xlink:href="#aK"/><use transform="matrix(0.05,0,0,0.05,102.25000000000001,0)" xlink:href="#aB"/></g><path fill="#333" d="M145-31C134-9 116 4 85 4 32 4 16-35 15-94c0-59 17-99 70-100 32-1 48 14 60 33 0-11-1-24 2-32h30l-1 268h-32zM93-21c41 0 51-33 51-76s-8-73-50-73c-40 0-46 35-46 75s5 74 45 74" id="bg"/><g id="o"><use transform="matrix(0.05,0,0,0.05,0,0)" xlink:href="#bg"/><use transform="matrix(0.05,0,0,0.05,10,0)" xlink:href="#aY"/><use transform="matrix(0.05,0,0,0.05,20,0)" xlink:href="#aE"/><use transform="matrix(0.05,0,0,0.05,30,0)" xlink:href="#bf"/><use transform="matrix(0.05,0,0,0.05,40,0)" xlink:href="#aF"/></g><path fill="#333" d="M68-38c1 34 0 65-14 84H32c9-13 17-26 17-46H33v-38h35" id="bh"/><g id="p"><use transform="matrix(0.05,0,0,0.05,0,0)" xlink:href="#aG"/><use transform="matrix(0.05,0,0,0.05,9,0)" xlink:href="#aH"/><use transform="matrix(0.05,0,0,0.05,14,0)" xlink:href="#aI"/><use transform="matrix(0.05,0,0,0.05,18.95,0)" xlink:href="#bh"/></g><g id="q"><use transform="matrix(0.05,0,0,0.05,0,0)" xlink:href="#aK"/><use transform="matrix(0.05,0,0,0.05,3.95,0)" xlink:href="#aB"/></g><path fill="#333" d="M101-251c82-7 93 87 43 132L82-64C71-53 59-42 53-27h129V0H18c2-99 128-94 128-182 0-28-16-43-45-43s-46 15-49 41l-32-3c6-41 34-60 81-64" id="bi"/><g id="r"><use transform="matrix(0.05,0,0,0.05,0,0)" xlink:href="#bg"/><use transform="matrix(0.05,0,0,0.05,10,0)" xlink:href="#aY"/><use transform="matrix(0.05,0,0,0.05,20,0)" xlink:href="#aE"/><use transform="matrix(0.05,0,0,0.05,30,0)" xlink:href="#bi"/><use transform="matrix(0.05,0,0,0.05,40,0)" xlink:href="#aF"/></g><path fill="#333" d="M126-127c33 6 58 20 58 59 0 88-139 92-164 29-3-8-5-16-6-25l32-3c6 27 21 44 54 44 32 0 52-15 52-46 0-38-36-46-79-43v-28c39 1 72-4 72-42 0-27-17-43-46-43-28 0-47 15-49 41l-32-3c6-42 35-63 81-64 48-1 79 21 79 65 0 36-21 52-52 59" id="bj"/><g id="s"><use transform="matrix(0.05,0,0,0.05,0,0)" xlink:href="#bg"/><use transform="matrix(0.05,0,0,0.05,10,0)" xlink:href="#aY"/><use transform="matrix(0.05,0,0,0.05,20,0)" xlink:href="#aE"/><use transform="matrix(0.05,0,0,0.05,30,0)" xlink:href="#bj"/><use transform="matrix(0.05,0,0,0.05,40,0)" xlink:href="#aF"/></g><g id="t"><use transform="matrix(0.05,0,0,0.05,0,0)" xlink:href="#aG"/><use transform="matrix(0.05,0,0,0.05,9,0)" xlink:href="#aH"/><use transform="matrix(0.05,0,0,0.05,14,0)" xlink:href="#aI"/><use transform="matrix(0.05,0,0,0.05,19.95,0)" xlink:href="#aO"/><use transform="matrix(0.05,0,0,0.05,25.899999999999995,0)" xlink:href="#aF"/><use transform="matrix(0.05,0,0,0.05,30.899999999999995,0)" xlink:href="#aK"/><use transform="matrix(0.05,0,0,0.05,34.85,0)" xlink:href="#aB"/><use transform="matrix(0.05,0,0,0.05,44.85,0)" xlink:href="#aH"/></g><path fill="#333" d="M24-248c93 1 206-16 204 79-1 75-69 88-152 82V0H24v-248zm52 121c47 0 100 7 100-41 0-47-54-39-100-39v80" id="bk"/><path fill="#333" d="M135-150c-39-12-60 13-60 57V0H25l-1-190h47c2 13-1 29 3 40 6-28 27-53 61-41v41" id="bl"/><path fill="#333" d="M137-138c1-29-70-34-71-4 15 46 118 7 119 86 1 83-164 76-172 9l43-7c4 19 20 25 44 25 33 8 57-30 24-41C81-84 22-81 20-136c-2-80 154-74 161-7" id="bm"/><path fill="#333" d="M25-224v-37h50v37H25zM25 0v-190h50V0H25" id="bn"/><path fill="#333" d="M110-194c64 0 96 36 96 99 0 64-35 99-97 99-61 0-95-36-95-99 0-62 34-99 96-99zm-1 164c35 0 45-28 45-65 0-40-10-65-43-65-34 0-45 26-45 65 0 36 10 65 43 65" id="bo"/><g id="v"><use transform="matrix(0.05,0,0,0.05,0,0)" xlink:href="#bk"/><use transform="matrix(0.05,0,0,0.05,12,0)" xlink:href="#bl"/><use transform="matrix(0.05,0,0,0.05,19,0)" xlink:href="#aS"/><use transform="matrix(0.05,0,0,0.05,29,0)" xlink:href="#bm"/><use transform="matrix(0.05,0,0,0.05,39,0)" xlink:href="#aS"/><use transform="matrix(0.05,0,0,0.05,49,0)" xlink:href="#az"/><use transform="matrix(0.05,0,0,0.05,59.95,0)" xlink:href="#aQ"/><use transform="matrix(0.05,0,0,0.05,65.9,0)" xlink:href="#ay"/><use transform="matrix(0.05,0,0,0.05,75.9,0)" xlink:href="#aQ"/><use transform="matrix(0.05,0,0,0.05,81.85000000000001,0)" xlink:href="#bn"/><use transform="matrix(0.05,0,0,0.05,86.85000000000001,0)" xlink:href="#bo"/><use transform="matrix(0.05,0,0,0.05,97.80000000000001,0)" xlink:href="#az"/></g><g id="w"><use transform="matrix(0.05,0,0,0.05,0,0)" xlink:href="#aA"/><use transform="matrix(0.05,0,0,0.05,10,0)" xlink:href="#aU"/><use transform="matrix(0.05,0,0,0.05,20,0)" xlink:href="#aI"/><use transform="matrix(0.05,0,0,0.05,25.950000000000003,0)" xlink:href="#aE"/><use transform="matrix(0.05,0,0,0.05,35.95,0)" xlink:href="#aG"/><use transform="matrix(0.05,0,0,0.05,44.95,0)" xlink:href="#aM"/><use transform="matrix(0.05,0,0,0.05,54.95,0)" xlink:href="#aH"/><use transform="matrix(0.05,0,0,0.05,59.95,0)" xlink:href="#aK"/><use transform="matrix(0.05,0,0,0.05,63.900000000000006,0)" xlink:href="#aH"/><use transform="matrix(0.05,0,0,0.05,68.9,0)" xlink:href="#aV"/><use transform="matrix(0.05,0,0,0.05,72.85000000000001,0)" xlink:href="#aE"/><use transform="matrix(0.05,0,0,0.05,82.85000000000001,0)" xlink:href="#aF"/><use transform="matrix(0.05,0,0,0.05,87.85000000000001,0)" xlink:href="#aG"/><use transform="matrix(0.05,0,0,0.05,96.85000000000001,0)" xlink:href="#aH"/><use transform="matrix(0.05,0,0,0.05,101.85000000000001,0)" xlink:href="#aI"/></g><g id="x"><use transform="matrix(0.05,0,0,0.05,0,0)" xlink:href="#aA"/><use transform="matrix(0.05,0,0,0.05,10,0)" xlink:href="#aC"/><use transform="matrix(0.05,0,0,0.05,20,0)" xlink:href="#aY"/><use transform="matrix(0.05,0,0,0.05,30,0)" xlink:href="#aH"/><use transform="matrix(0.05,0,0,0.05,35,0)" xlink:href="#be"/><use transform="matrix(0.05,0,0,0.05,45,0)" xlink:href="#aW"/><use transform="matrix(0.05,0,0,0.05,55,0)" xlink:href="#aI"/><use transform="matrix(0.05,0,0,0.05,60.95,0)" xlink:href="#aF"/><use transform="matrix(0.05,0,0,0.05,65.95,0)" xlink:href="#aG"/><use transform="matrix(0.05,0,0,0.05,74.95,0)" xlink:href="#aH"/><use transform="matrix(0.05,0,0,0.05,79.95,0)" xlink:href="#aI"/></g><g id="y"><use transform="matrix(0.05,0,0,0.05,0,0)" xlink:href="#aA"/><use transform="matrix(0.05,0,0,0.05,10,0)" xlink:href="#bd"/><use transform="matrix(0.05,0,0,0.05,19,0)" xlink:href="#aW"/><use transform="matrix(0.05,0,0,0.05,29,0)" xlink:href="#aB"/><use transform="matrix(0.05,0,0,0.05,39,0)" xlink:href="#aH"/><use transform="matrix(0.05,0,0,0.05,44,0)" xlink:href="#aE"/><use transform="matrix(0.05,0,0,0.05,54,0)" xlink:href="#aB"/><use transform="matrix(0.05,0,0,0.05,64,0)" xlink:href="#aH"/><use transform="matrix(0.05,0,0,0.05,69,0)" xlink:href="#aF"/><use transform="matrix(0.05,0,0,0.05,74,0)" xlink:href="#aG"/><use transform="matrix(0.05,0,0,0.05,83,0)" xlink:href="#aH"/><use transform="matrix(0.05,0,0,0.05,88,0)" xlink:href="#aI"/></g><g id="z"><use transform="matrix(0.05,0,0,0.05,0,0)" xlink:href="#aL"/><use transform="matrix(0.05,0,0,0.05,10.5,0)" xlink:href="#aJ"/><use transform="matrix(0.05,0,0,0.05,20.5,0)" xlink:href="#aE"/><use transform="matrix(0.05,0,0,0.05,30.5,0)" xlink:href="#aH"/><use transform="matrix(0.05,0,0,0.05,35.5,0)" xlink:href="#aM"/><use transform="matrix(0.05,0,0,0.05,45.5,0)" xlink:href="#aU"/><use transform="matrix(0.05,0,0,0.05,55.5,0)" xlink:href="#aI"/><use transform="matrix(0.05,0,0,0.05,61.45,0)" xlink:href="#aE"/><use transform="matrix(0.05,0,0,0.05,71.45,0)" xlink:href="#aG"/><use transform="matrix(0.05,0,0,0.05,80.45,0)" xlink:href="#aM"/><use transform="matrix(0.05,0,0,0.05,90.45,0)" xlink:href="#aH"/><use transform="matrix(0.05,0,0,0.05,95.45,0)" xlink:href="#aK"/><use transform="matrix(0.05,0,0,0.05,99.4,0)" xlink:href="#aH"/><use transform="matrix(0.05,0,0,0.05,104.4,0)" xlink:href="#aV"/><use transform="matrix(0.05,0,0,0.05,108.35000000000001,0)" xlink:href="#aE"/><use transform="matrix(0.05,0,0,0.05,118.35000000000001,0)" xlink:href="#aN"/><use transform="matrix(0.05,0,0,0.05,124.30000000000001,0)" xlink:href="#aO"/><use transform="matrix(0.05,0,0,0.05,130.25,0)" xlink:href="#aF"/><use transform="matrix(0.05,0,0,0.05,135.25,0)" xlink:href="#aG"/><use transform="matrix(0.05,0,0,0.05,144.25,0)" xlink:href="#aH"/><use transform="matrix(0.05,0,0,0.05,149.25,0)" xlink:href="#aI"/></g><g id="A"><use transform="matrix(0.05,0,0,0.05,0,0)" xlink:href="#aL"/><use transform="matrix(0.05,0,0,0.05,10.5,0)" xlink:href="#aJ"/><use transform="matrix(0.05,0,0,0.05,20.5,0)" xlink:href="#aE"/><use transform="matrix(0.05,0,0,0.05,30.5,0)" xlink:href="#aH"/><use transform="matrix(0.05,0,0,0.05,35.5,0)" xlink:href="#aM"/><use transform="matrix(0.05,0,0,0.05,45.5,0)" xlink:href="#aC"/><use transform="matrix(0.05,0,0,0.05,55.5,0)" xlink:href="#aY"/><use transform="matrix(0.05,0,0,0.05,65.5,0)" xlink:href="#aH"/><use transform="matrix(0.05,0,0,0.05,70.5,0)" xlink:href="#be"/><use transform="matrix(0.05,0,0,0.05,80.5,0)" xlink:href="#aW"/><use transform="matrix(0.05,0,0,0.05,90.5,0)" xlink:href="#aI"/><use transform="matrix(0.05,0,0,0.05,96.45,0)" xlink:href="#aN"/><use transform="matrix(0.05,0,0,0.05,102.4,0)" xlink:href="#aO"/><use transform="matrix(0.05,0,0,0.05,108.35000000000001,0)" xlink:href="#aF"/><use transform="matrix(0.05,0,0,0.05,113.35000000000001,0)" xlink:href="#aG"/><use transform="matrix(0.05,0,0,0.05,122.35000000000001,0)" xlink:href="#aH"/><use transform="matrix(0.05,0,0,0.05,127.35000000000001,0)" xlink:href="#aI"/></g><g id="B"><use transform="matrix(0.05,0,0,0.05,0,0)" xlink:href="#aL"/><use transform="matrix(0.05,0,0,0.05,10.5,0)" xlink:href="#aJ"/><use transform="matrix(0.05,0,0,0.05,20.5,0)" xlink:href="#aE"/><use transform="matrix(0.05,0,0,0.05,30.5,0)" xlink:href="#aH"/><use transform="matrix(0.05,0,0,0.05,35.5,0)" xlink:href="#aM"/><use transform="matrix(0.05,0,0,0.05,45.5,0)" xlink:href="#bd"/><use transform="matrix(0.05,0,0,0.05,54.5,0)" xlink:href="#aW"/><use transform="matrix(0.05,0,0,0.05,64.5,0)" xlink:href="#aB"/><use transform="matrix(0.05,0,0,0.05,74.5,0)" xlink:href="#aH"/><use transform="matrix(0.05,0,0,0.05,79.5,0)" xlink:href="#aE"/><use transform="matrix(0.05,0,0,0.05,89.5,0)" xlink:href="#aB"/><use transform="matrix(0.05,0,0,0.05,99.5,0)" xlink:href="#aH"/><use transform="matrix(0.05,0,0,0.05,104.5,0)" xlink:href="#aN"/><use transform="matrix(0.05,0,0,0.05,110.45,0)" xlink:href="#aO"/><use transform="matrix(0.05,0,0,0.05,116.4,0)" xlink:href="#aF"/><use transform="matrix(0.05,0,0,0.05,121.4,0)" xlink:href="#aG"/><use transform="matrix(0.05,0,0,0.05,130.4,0)" xlink:href="#aH"/><use transform="matrix(0.05,0,0,0.05,135.4,0)" xlink:href="#aI"/></g><g id="C"><use transform="matrix(0.05,0,0,0.05,0,0)" xlink:href="#aL"/><use transform="matrix(0.05,0,0,0.05,10.5,0)" xlink:href="#aU"/><use transform="matrix(0.05,0,0,0.05,20.5,0)" xlink:href="#aI"/><use transform="matrix(0.05,0,0,0.05,26.450000000000003,0)" xlink:href="#aE"/><use transform="matrix(0.05,0,0,0.05,36.45,0)" xlink:href="#aG"/><use transform="matrix(0.05,0,0,0.05,45.45,0)" xlink:href="#aE"/><use transform="matrix(0.05,0,0,0.05,55.45,0)" xlink:href="#aB"/><use transform="matrix(0.05,0,0,0.05,65.45,0)" xlink:href="#aH"/><use transform="matrix(0.05,0,0,0.05,70.45,0)" xlink:href="#aM"/><use transform="matrix(0.05,0,0,0.05,80.45,0)" xlink:href="#aK"/><use transform="matrix(0.05,0,0,0.05,84.4,0)" xlink:href="#aB"/><use transform="matrix(0.05,0,0,0.05,94.4,0)" xlink:href="#aZ"/><use transform="matrix(0.05,0,0,0.05,99.4,0)" xlink:href="#aW"/><use transform="matrix(0.05,0,0,0.05,109.4,0)" xlink:href="#aN"/><use transform="matrix(0.05,0,0,0.05,115.35000000000001,0)" xlink:href="#aO"/></g><g id="D"><use transform="matrix(0.05,0,0,0.05,0,0)" xlink:href="#aL"/><use transform="matrix(0.05,0,0,0.05,10.5,0)" xlink:href="#aV"/><use transform="matrix(0.05,0,0,0.05,14.449999999999998,0)" xlink:href="#aK"/><use transform="matrix(0.05,0,0,0.05,18.4,0)" xlink:href="#aG"/><use transform="matrix(0.05,0,0,0.05,27.399999999999995,0)" xlink:href="#aH"/><use transform="matrix(0.05,0,0,0.05,32.4,0)" xlink:href="#aM"/><use transform="matrix(0.05,0,0,0.05,42.4,0)" xlink:href="#aU"/><use transform="matrix(0.05,0,0,0.05,52.400000000000006,0)" xlink:href="#aC"/><use transform="matrix(0.05,0,0,0.05,62.400000000000006,0)" xlink:href="#aJ"/><use transform="matrix(0.05,0,0,0.05,72.4,0)" xlink:href="#aE"/><use transform="matrix(0.05,0,0,0.05,82.4,0)" xlink:href="#aG"/><use transform="matrix(0.05,0,0,0.05,91.4,0)" xlink:href="#aN"/><use transform="matrix(0.05,0,0,0.05,97.35000000000001,0)" xlink:href="#aO"/></g><path fill="#333" d="M136-208V0H84v-208H4v-40h212v40h-80" id="bp"/><path fill="#333" d="M190-63c-7 42-38 67-86 67-59 0-84-38-90-98-12-110 154-137 174-36l-49 2c-2-19-15-32-35-32-30 0-35 28-38 64-6 74 65 87 74 30" id="bq"/><path fill="#333" d="M114-157C55-157 80-60 75 0H25v-261h50l-1 109c12-26 28-41 61-42 86-1 58 113 63 194h-50c-7-57 23-157-34-157" id="br"/><g id="E"><use transform="matrix(0.05,0,0,0.05,0,0)" xlink:href="#bp"/><use transform="matrix(0.05,0,0,0.05,9.600000000000001,0)" xlink:href="#aS"/><use transform="matrix(0.05,0,0,0.05,19.6,0)" xlink:href="#ay"/><use transform="matrix(0.05,0,0,0.05,29.6,0)" xlink:href="#bq"/><use transform="matrix(0.05,0,0,0.05,39.6,0)" xlink:href="#br"/><use transform="matrix(0.05,0,0,0.05,50.550000000000004,0)" xlink:href="#aS"/><use transform="matrix(0.05,0,0,0.05,60.550000000000004,0)" xlink:href="#bl"/></g><path fill="#333" d="M141 0L90-78 38 0H4l68-98-65-92h35l48 74 47-74h35l-64 92 68 98h-35" id="bs"/><g id="F"><use transform="matrix(0.05,0,0,0.05,0,0)" xlink:href="#aA"/><use transform="matrix(0.05,0,0,0.05,10,0)" xlink:href="#aE"/><use transform="matrix(0.05,0,0,0.05,20,0)" xlink:href="#bs"/><use transform="matrix(0.05,0,0,0.05,29,0)" xlink:href="#aU"/><use transform="matrix(0.05,0,0,0.05,39,0)" xlink:href="#aE"/><use transform="matrix(0.05,0,0,0.05,49,0)" xlink:href="#aI"/><use transform="matrix(0.05,0,0,0.05,54.95,0)" xlink:href="#aK"/><use transform="matrix(0.05,0,0,0.05,58.900000000000006,0)" xlink:href="#aE"/><use transform="matrix(0.05,0,0,0.05,68.9,0)" xlink:href="#aB"/><use transform="matrix(0.05,0,0,0.05,78.9,0)" xlink:href="#bd"/><use transform="matrix(0.05,0,0,0.05,87.9,0)" xlink:href="#aE"/><use transform="matrix(0.05,0,0,0.05,97.9,0)" xlink:href="#aF"/><use transform="matrix(0.05,0,0,0.05,102.9,0)" xlink:href="#aK"/><use transform="matrix(0.05,0,0,0.05,106.85000000000001,0)" xlink:href="#aB"/><use transform="matrix(0.05,0,0,0.05,116.85000000000001,0)" xlink:href="#aH"/></g><g id="G"><use transform="matrix(0.05,0,0,0.05,0,0)" xlink:href="#aA"/><use transform="matrix(0.05,0,0,0.05,10,0)" xlink:href="#aT"/><use transform="matrix(0.05,0,0,0.05,20,0)" xlink:href="#aE"/><use transform="matrix(0.05,0,0,0.05,30,0)" xlink:href="#aJ"/><use transform="matrix(0.05,0,0,0.05,40,0)" xlink:href="#aI"/><use transform="matrix(0.05,0,0,0.05,45.95,0)" xlink:href="#aE"/><use transform="matrix(0.05,0,0,0.05,55.95,0)" xlink:href="#aE"/><use transform="matrix(0.05,0,0,0.05,65.95,0)" xlink:href="#aF"/><use transform="matrix(0.05,0,0,0.05,70.95,0)" xlink:href="#aG"/><use transform="matrix(0.05,0,0,0.05,79.95,0)" xlink:href="#aH"/><use transform="matrix(0.05,0,0,0.05,84.95,0)" xlink:href="#aI"/></g><g id="H"><use transform="matrix(0.05,0,0,0.05,0,0)" xlink:href="#aL"/><use transform="matrix(0.05,0,0,0.05,10.5,0)" xlink:href="#aJ"/><use transform="matrix(0.05,0,0,0.05,20.5,0)" xlink:href="#aE"/><use transform="matrix(0.05,0,0,0.05,30.5,0)" xlink:href="#aH"/><use transform="matrix(0.05,0,0,0.05,35.5,0)" xlink:href="#aM"/><use transform="matrix(0.05,0,0,0.05,45.5,0)" xlink:href="#aE"/><use transform="matrix(0.05,0,0,0.05,55.5,0)" xlink:href="#bs"/><use transform="matrix(0.05,0,0,0.05,64.5,0)" xlink:href="#aU"/><use transform="matrix(0.05,0,0,0.05,74.5,0)" xlink:href="#aE"/><use transform="matrix(0.05,0,0,0.05,84.5,0)" xlink:href="#aI"/><use transform="matrix(0.05,0,0,0.05,90.45,0)" xlink:href="#aK"/><use transform="matrix(0.05,0,0,0.05,94.4,0)" xlink:href="#aE"/><use transform="matrix(0.05,0,0,0.05,104.4,0)" xlink:href="#aB"/><use transform="matrix(0.05,0,0,0.05,114.4,0)" xlink:href="#bd"/><use transform="matrix(0.05,0,0,0.05,123.4,0)" xlink:href="#aE"/><use transform="matrix(0.05,0,0,0.05,133.4,0)" xlink:href="#aN"/><use transform="matrix(0.05,0,0,0.05,139.35,0)" xlink:href="#aO"/><use transform="matrix(0.05,0,0,0.05,145.29999999999998,0)" xlink:href="#aF"/><use transform="matrix(0.05,0,0,0.05,150.29999999999998,0)" xlink:href="#aK"/><use transform="matrix(0.05,0,0,0.05,154.24999999999997,0)" xlink:href="#aB"/><use transform="matrix(0.05,0,0,0.05,164.24999999999997,0)" xlink:href="#aH"/></g><g id="I"><use transform="matrix(0.05,0,0,0.05,0,0)" xlink:href="#aL"/><use transform="matrix(0.05,0,0,0.05,10.5,0)" xlink:href="#aJ"/><use transform="matrix(0.05,0,0,0.05,20.5,0)" xlink:href="#aE"/><use transform="matrix(0.05,0,0,0.05,30.5,0)" xlink:href="#aH"/><use transform="matrix(0.05,0,0,0.05,35.5,0)" xlink:href="#aM"/><use transform="matrix(0.05,0,0,0.05,45.5,0)" xlink:href="#aT"/><use transform="matrix(0.05,0,0,0.05,55.5,0)" xlink:href="#aE"/><use transform="matrix(0.05,0,0,0.05,65.5,0)" xlink:href="#aJ"/><use transform="matrix(0.05,0,0,0.05,75.5,0)" xlink:href="#aI"/><use transform="matrix(0.05,0,0,0.05,81.45,0)" xlink:href="#aE"/><use transform="matrix(0.05,0,0,0.05,91.45,0)" xlink:href="#aE"/><use transform="matrix(0.05,0,0,0.05,101.45,0)" xlink:href="#aN"/><use transform="matrix(0.05,0,0,0.05,107.4,0)" xlink:href="#aO"/><use transform="matrix(0.05,0,0,0.05,113.35000000000001,0)" xlink:href="#aF"/><use transform="matrix(0.05,0,0,0.05,118.35000000000001,0)" xlink:href="#aG"/><use transform="matrix(0.05,0,0,0.05,127.35000000000001,0)" xlink:href="#aH"/><use transform="matrix(0.05,0,0,0.05,132.35000000000002,0)" xlink:href="#aI"/></g><g id="J"><use transform="matrix(0.05,0,0,0.05,0,0)" xlink:href="#aL"/><use transform="matrix(0.05,0,0,0.05,10.5,0)" xlink:href="#bd"/><use transform="matrix(0.05,0,0,0.05,19.5,0)" xlink:href="#be"/><use transform="matrix(0.05,0,0,0.05,29.5,0)" xlink:href="#aW"/><use transform="matrix(0.05,0,0,0.05,39.5,0)" xlink:href="#aW"/><use transform="matrix(0.05,0,0,0.05,49.5,0)" xlink:href="#aG"/><use transform="matrix(0.05,0,0,0.05,58.5,0)" xlink:href="#aE"/><use transform="matrix(0.05,0,0,0.05,68.5,0)" xlink:href="#aM"/><use transform="matrix(0.05,0,0,0.05,78.5,0)" xlink:href="#bg"/><use transform="matrix(0.05,0,0,0.05,88.5,0)" xlink:href="#aY"/><use transform="matrix(0.05,0,0,0.05,98.5,0)" xlink:href="#aE"/><use transform="matrix(0.05,0,0,0.05,108.5,0)" xlink:href="#aG"/><use transform="matrix(0.05,0,0,0.05,117.5,0)" xlink:href="#aH"/><use transform="matrix(0.05,0,0,0.05,122.5,0)" xlink:href="#aK"/><use transform="matrix(0.05,0,0,0.05,126.45,0)" xlink:href="#aW"/><use transform="matrix(0.05,0,0,0.05,136.45,0)" xlink:href="#aB"/><use transform="matrix(0.05,0,0,0.05,146.45,0)" xlink:href="#aN"/><use transform="matrix(0.05,0,0,0.05,152.39999999999998,0)" xlink:href="#aO"/><use transform="matrix(0.05,0,0,0.05,158.34999999999997,0)" xlink:href="#aF"/><use transform="matrix(0.05,0,0,0.05,163.34999999999997,0)" xlink:href="#aG"/><use transform="matrix(0.05,0,0,0.05,172.34999999999997,0)" xlink:href="#aH"/><use transform="matrix(0.05,0,0,0.05,177.34999999999997,0)" xlink:href="#aI"/></g><path fill="#333" d="M135-194c53 0 70 44 70 98 0 56-19 98-73 100-31 1-45-17-59-34 3 33 2 69 2 105H25l-1-265h48c2 10 0 23 3 31 11-24 29-35 60-35zM114-30c33 0 39-31 40-66 0-38-9-64-40-64-56 0-55 130 0 130" id="bt"/><path fill="#333" d="M128 0H69L1-190h53L99-40l48-150h52" id="bu"/><g id="K"><use transform="matrix(0.05,0,0,0.05,0,0)" xlink:href="#aP"/><use transform="matrix(0.05,0,0,0.05,12,0)" xlink:href="#aw"/><use transform="matrix(0.05,0,0,0.05,22.950000000000003,0)" xlink:href="#bt"/><use transform="matrix(0.05,0,0,0.05,33.900000000000006,0)" xlink:href="#aS"/><use transform="matrix(0.05,0,0,0.05,43.900000000000006,0)" xlink:href="#bl"/><use transform="matrix(0.05,0,0,0.05,50.900000000000006,0)" xlink:href="#bu"/><use transform="matrix(0.05,0,0,0.05,60.900000000000006,0)" xlink:href="#bn"/><use transform="matrix(0.05,0,0,0.05,65.9,0)" xlink:href="#bm"/><use transform="matrix(0.05,0,0,0.05,75.9,0)" xlink:href="#bo"/><use transform="matrix(0.05,0,0,0.05,86.85000000000001,0)" xlink:href="#bl"/></g><g id="L"><use transform="matrix(0.05,0,0,0.05,0,0)" xlink:href="#aL"/><use transform="matrix(0.05,0,0,0.05,10.5,0)" xlink:href="#aG"/><use transform="matrix(0.05,0,0,0.05,19.5,0)" xlink:href="#aH"/><use transform="matrix(0.05,0,0,0.05,24.5,0)" xlink:href="#aY"/><use transform="matrix(0.05,0,0,0.05,34.5,0)" xlink:href="#aT"/><use transform="matrix(0.05,0,0,0.05,44.5,0)" xlink:href="#aE"/><use transform="matrix(0.05,0,0,0.05,54.5,0)" xlink:href="#aB"/><use transform="matrix(0.05,0,0,0.05,64.5,0)" xlink:href="#aH"/><use transform="matrix(0.05,0,0,0.05,69.5,0)" xlink:href="#aG"/><use transform="matrix(0.05,0,0,0.05,78.5,0)" xlink:href="#aF"/><use transform="matrix(0.05,0,0,0.05,83.5,0)" xlink:href="#aV"/><use transform="matrix(0.05,0,0,0.05,87.45,0)" xlink:href="#aK"/><use transform="matrix(0.05,0,0,0.05,91.4,0)" xlink:href="#aG"/><use transform="matrix(0.05,0,0,0.05,100.4,0)" xlink:href="#aH"/></g><path fill="#333" d="M18-150v-26h174v26H18zm0 90v-26h174v26H18" id="bv"/><use transform="matrix(0.05,0,0,0.05,0,0)" xlink:href="#bv" id="M"/><path fill="#333" d="M190 0L58-211 59 0H30v-248h39L202-35l-2-213h31V0h-41" id="bw"/><g id="N"><use transform="matrix(0.05,0,0,0.05,0,0)" xlink:href="#bw"/><use transform="matrix(0.05,0,0,0.05,12.950000000000001,0)" xlink:href="#aW"/><use transform="matrix(0.05,0,0,0.05,22.950000000000003,0)" xlink:href="#aB"/><use transform="matrix(0.05,0,0,0.05,32.95,0)" xlink:href="#aE"/></g><g id="O"><use transform="matrix(0.05,0,0,0.05,0,0)" xlink:href="#aL"/><use transform="matrix(0.05,0,0,0.05,10.5,0)" xlink:href="#aG"/><use transform="matrix(0.05,0,0,0.05,19.5,0)" xlink:href="#aY"/><use transform="matrix(0.05,0,0,0.05,29.5,0)" xlink:href="#aU"/><use transform="matrix(0.05,0,0,0.05,39.5,0)" xlink:href="#aE"/><use transform="matrix(0.05,0,0,0.05,49.5,0)" xlink:href="#aI"/><use transform="matrix(0.05,0,0,0.05,55.45,0)" xlink:href="#bb"/><use transform="matrix(0.05,0,0,0.05,64.45,0)" xlink:href="#aK"/><use transform="matrix(0.05,0,0,0.05,68.4,0)" xlink:href="#aG"/><use transform="matrix(0.05,0,0,0.05,77.4,0)" xlink:href="#aM"/><use transform="matrix(0.05,0,0,0.05,87.4,0)" xlink:href="#aK"/><use transform="matrix(0.05,0,0,0.05,91.35000000000001,0)" xlink:href="#aB"/><use transform="matrix(0.05,0,0,0.05,101.35000000000001,0)" xlink:href="#aZ"/><use transform="matrix(0.05,0,0,0.05,106.35000000000001,0)" xlink:href="#aW"/><use transform="matrix(0.05,0,0,0.05,116.35000000000001,0)" xlink:href="#aN"/><use transform="matrix(0.05,0,0,0.05,122.30000000000001,0)" xlink:href="#aO"/></g><path fill="#333" d="M143 0L79-87 56-68V0H24v-261h32v163l83-92h37l-77 82L181 0h-38" id="bx"/><g id="P"><use transform="matrix(0.05,0,0,0.05,0,0)" xlink:href="#aL"/><use transform="matrix(0.05,0,0,0.05,10.5,0)" xlink:href="#bd"/><use transform="matrix(0.05,0,0,0.05,19.5,0)" xlink:href="#be"/><use transform="matrix(0.05,0,0,0.05,29.5,0)" xlink:href="#aE"/><use transform="matrix(0.05,0,0,0.05,39.5,0)" xlink:href="#bd"/><use transform="matrix(0.05,0,0,0.05,48.5,0)" xlink:href="#bx"/><use transform="matrix(0.05,0,0,0.05,57.5,0)" xlink:href="#aK"/><use transform="matrix(0.05,0,0,0.05,61.45,0)" xlink:href="#aB"/><use transform="matrix(0.05,0,0,0.05,71.45,0)" xlink:href="#aJ"/><use transform="matrix(0.05,0,0,0.05,81.45,0)" xlink:href="#aN"/><use transform="matrix(0.05,0,0,0.05,87.4,0)" xlink:href="#aO"/></g><g id="Q"><use transform="matrix(0.05,0,0,0.05,0,0)" xlink:href="#aL"/><use transform="matrix(0.05,0,0,0.05,10.5,0)" xlink:href="#aU"/><use transform="matrix(0.05,0,0,0.05,20.5,0)" xlink:href="#aI"/><use transform="matrix(0.05,0,0,0.05,26.450000000000003,0)" xlink:href="#aK"/><use transform="matrix(0.05,0,0,0.05,30.399999999999995,0)" xlink:href="#aB"/><use transform="matrix(0.05,0,0,0.05,40.4,0)" xlink:href="#aH"/><use transform="matrix(0.05,0,0,0.05,45.4,0)" xlink:href="#aM"/><use transform="matrix(0.05,0,0,0.05,55.400000000000006,0)" xlink:href="#aG"/><use transform="matrix(0.05,0,0,0.05,64.4,0)" xlink:href="#aH"/><use transform="matrix(0.05,0,0,0.05,69.4,0)" xlink:href="#aY"/><use transform="matrix(0.05,0,0,0.05,79.4,0)" xlink:href="#aT"/><use transform="matrix(0.05,0,0,0.05,89.4,0)" xlink:href="#aE"/><use transform="matrix(0.05,0,0,0.05,99.4,0)" xlink:href="#aB"/><use transform="matrix(0.05,0,0,0.05,109.4,0)" xlink:href="#aH"/><use transform="matrix(0.05,0,0,0.05,114.4,0)" xlink:href="#aG"/><use transform="matrix(0.05,0,0,0.05,123.4,0)" xlink:href="#aM"/><use transform="matrix(0.05,0,0,0.05,133.4,0)" xlink:href="#aK"/><use transform="matrix(0.05,0,0,0.05,137.35,0)" xlink:href="#aB"/><use transform="matrix(0.05,0,0,0.05,147.35,0)" xlink:href="#aZ"/><use transform="matrix(0.05,0,0,0.05,152.35,0)" xlink:href="#aW"/><use transform="matrix(0.05,0,0,0.05,162.35,0)" xlink:href="#aN"/><use transform="matrix(0.05,0,0,0.05,168.29999999999998,0)" xlink:href="#aO"/></g><path fill="#333" d="M67-125c0 53 21 87 73 88 37 1 54-22 65-47l45 17C233-25 199 4 140 4 58 4 20-42 15-125 8-235 124-281 211-232c18 10 29 29 36 50l-46 12c-8-25-30-41-62-41-52 0-71 34-72 86" id="by"/><g id="R"><use transform="matrix(0.05,0,0,0.05,0,0)" xlink:href="#by"/><use transform="matrix(0.05,0,0,0.05,12.950000000000001,0)" xlink:href="#bo"/><use transform="matrix(0.05,0,0,0.05,23.900000000000002,0)" xlink:href="#ax"/><use transform="matrix(0.05,0,0,0.05,39.900000000000006,0)" xlink:href="#bn"/><use transform="matrix(0.05,0,0,0.05,44.900000000000006,0)" xlink:href="#bm"/><use transform="matrix(0.05,0,0,0.05,54.900000000000006,0)" xlink:href="#bm"/><use transform="matrix(0.05,0,0,0.05,64.9,0)" xlink:href="#bn"/><use transform="matrix(0.05,0,0,0.05,69.9,0)" xlink:href="#bo"/><use transform="matrix(0.05,0,0,0.05,80.85000000000001,0)" xlink:href="#az"/></g><path fill="#333" d="M127-220V0H93v-220H8v-28h204v28h-85" id="bz"/><g id="S"><use transform="matrix(0.05,0,0,0.05,0,0)" xlink:href="#aL"/><use transform="matrix(0.05,0,0,0.05,10.5,0)" xlink:href="#aH"/><use transform="matrix(0.05,0,0,0.05,15.5,0)" xlink:href="#aE"/><use transform="matrix(0.05,0,0,0.05,25.5,0)" xlink:href="#aC"/><use transform="matrix(0.05,0,0,0.05,35.5,0)" xlink:href="#bd"/><use transform="matrix(0.05,0,0,0.05,44.5,0)" xlink:href="#be"/><use transform="matrix(0.05,0,0,0.05,54.5,0)" xlink:href="#aE"/><use transform="matrix(0.05,0,0,0.05,64.5,0)" xlink:href="#aI"/><use transform="matrix(0.05,0,0,0.05,70.45,0)" xlink:href="#bf"/><use transform="matrix(0.05,0,0,0.05,80.45,0)" xlink:href="#aF"/><use transform="matrix(0.05,0,0,0.05,85.45,0)" xlink:href="#bz"/><use transform="matrix(0.05,0,0,0.05,94.4,0)" xlink:href="#aE"/><use transform="matrix(0.05,0,0,0.05,104.4,0)" xlink:href="#aC"/><use transform="matrix(0.05,0,0,0.05,114.4,0)" xlink:href="#bd"/><use transform="matrix(0.05,0,0,0.05,123.4,0)" xlink:href="#be"/><use transform="matrix(0.05,0,0,0.05,133.4,0)" xlink:href="#aE"/><use transform="matrix(0.05,0,0,0.05,143.4,0)" xlink:href="#aI"/></g><g id="T"><use transform="matrix(0.05,0,0,0.05,0,0)" xlink:href="#aL"/><use transform="matrix(0.05,0,0,0.05,10.5,0)" xlink:href="#aH"/><use transform="matrix(0.05,0,0,0.05,15.5,0)" xlink:href="#aE"/><use transform="matrix(0.05,0,0,0.05,25.5,0)" xlink:href="#aC"/><use transform="matrix(0.05,0,0,0.05,35.5,0)" xlink:href="#bd"/><use transform="matrix(0.05,0,0,0.05,44.5,0)" xlink:href="#be"/><use transform="matrix(0.05,0,0,0.05,54.5,0)" xlink:href="#aE"/><use transform="matrix(0.05,0,0,0.05,64.5,0)" xlink:href="#aI"/><use transform="matrix(0.05,0,0,0.05,70.45,0)" xlink:href="#bi"/><use transform="matrix(0.05,0,0,0.05,80.45,0)" xlink:href="#aF"/><use transform="matrix(0.05,0,0,0.05,85.45,0)" xlink:href="#bz"/><use transform="matrix(0.05,0,0,0.05,94.4,0)" xlink:href="#aE"/><use transform="matrix(0.05,0,0,0.05,104.4,0)" xlink:href="#aC"/><use transform="matrix(0.05,0,0,0.05,114.4,0)" xlink:href="#bd"/><use transform="matrix(0.05,0,0,0.05,123.4,0)" xlink:href="#be"/><use transform="matrix(0.05,0,0,0.05,133.4,0)" xlink:href="#aE"/><use transform="matrix(0.05,0,0,0.05,143.4,0)" xlink:href="#aI"/></g><g id="U"><use transform="matrix(0.05,0,0,0.05,0,0)" xlink:href="#aL"/><use transform="matrix(0.05,0,0,0.05,10.5,0)" xlink:href="#aH"/><use transform="matrix(0.05,0,0,0.05,15.5,0)" xlink:href="#aE"/><use transform="matrix(0.05,0,0,0.05,25.5,0)" xlink:href="#aC"/><use transform="matrix(0.05,0,0,0.05,35.5,0)" xlink:href="#bd"/><use transform="matrix(0.05,0,0,0.05,44.5,0)" xlink:href="#be"/><use transform="matrix(0.05,0,0,0.05,54.5,0)" xlink:href="#aE"/><use transform="matrix(0.05,0,0,0.05,64.5,0)" xlink:href="#aI"/><use transform="matrix(0.05,0,0,0.05,70.45,0)" xlink:href="#bj"/><use transform="matrix(0.05,0,0,0.05,80.45,0)" xlink:href="#aF"/><use transform="matrix(0.05,0,0,0.05,85.45,0)" xlink:href="#bz"/><use transform="matrix(0.05,0,0,0.05,94.4,0)" xlink:href="#aE"/><use transform="matrix(0.05,0,0,0.05,104.4,0)" xlink:href="#aC"/><use transform="matrix(0.05,0,0,0.05,114.4,0)" xlink:href="#bd"/><use transform="matrix(0.05,0,0,0.05,123.4,0)" xlink:href="#be"/><use transform="matrix(0.05,0,0,0.05,133.4,0)" xlink:href="#aE"/><use transform="matrix(0.05,0,0,0.05,143.4,0)" xlink:href="#aI"/></g><g id="V"><use transform="matrix(0.05,0,0,0.05,0,0)" xlink:href="#aL"/><use transform="matrix(0.05,0,0,0.05,10.5,0)" xlink:href="#bd"/><use transform="matrix(0.05,0,0,0.05,19.5,0)" xlink:href="#aW"/><use transform="matrix(0.05,0,0,0.05,29.5,0)" xlink:href="#aD"/><use transform="matrix(0.05,0,0,0.05,44.45,0)" xlink:href="#aM"/><use transform="matrix(0.05,0,0,0.05,54.45,0)" xlink:href="#be"/><use transform="matrix(0.05,0,0,0.05,64.45,0)" xlink:href="#aE"/><use transform="matrix(0.05,0,0,0.05,74.45,0)" xlink:href="#aV"/><use transform="matrix(0.05,0,0,0.05,78.4,0)" xlink:href="#aV"/><use transform="matrix(0.05,0,0,0.05,82.35000000000001,0)" xlink:href="#aW"/><use transform="matrix(0.05,0,0,0.05,92.35000000000001,0)" xlink:href="#aN"/><use transform="matrix(0.05,0,0,0.05,98.30000000000001,0)" xlink:href="#aO"/></g><g id="W"><use transform="matrix(0.05,0,0,0.05,0,0)" xlink:href="#aL"/><use transform="matrix(0.05,0,0,0.05,10.5,0)" xlink:href="#bd"/><use transform="matrix(0.05,0,0,0.05,19.5,0)" xlink:href="#aW"/><use transform="matrix(0.05,0,0,0.05,29.5,0)" xlink:href="#aD"/><use transform="matrix(0.05,0,0,0.05,44.45,0)" xlink:href="#aK"/><use transform="matrix(0.05,0,0,0.05,48.400000000000006,0)" xlink:href="#aG"/><use transform="matrix(0.05,0,0,0.05,57.400000000000006,0)" xlink:href="#aG"/><use transform="matrix(0.05,0,0,0.05,66.4,0)" xlink:href="#aK"/><use transform="matrix(0.05,0,0,0.05,70.35000000000001,0)" xlink:href="#aW"/><use transform="matrix(0.05,0,0,0.05,80.35000000000001,0)" xlink:href="#aB"/><use transform="matrix(0.05,0,0,0.05,90.35000000000001,0)" xlink:href="#aM"/><use transform="matrix(0.05,0,0,0.05,100.35000000000001,0)" xlink:href="#aC"/><use transform="matrix(0.05,0,0,0.05,110.35000000000001,0)" xlink:href="#aG"/><use transform="matrix(0.05,0,0,0.05,119.35000000000001,0)" xlink:href="#bx"/><use transform="matrix(0.05,0,0,0.05,128.35000000000002,0)" xlink:href="#aK"/><use transform="matrix(0.05,0,0,0.05,132.3,0)" xlink:href="#aB"/><use transform="matrix(0.05,0,0,0.05,142.3,0)" xlink:href="#aJ"/><use transform="matrix(0.05,0,0,0.05,152.3,0)" xlink:href="#aN"/><use transform="matrix(0.05,0,0,0.05,158.25,0)" xlink:href="#aO"/><use transform="matrix(0.05,0,0,0.05,164.2,0)" xlink:href="#aF"/><use transform="matrix(0.05,0,0,0.05,169.2,0)" xlink:href="#aH"/><use transform="matrix(0.05,0,0,0.05,174.2,0)" xlink:href="#aY"/><use transform="matrix(0.05,0,0,0.05,184.2,0)" xlink:href="#aU"/><use transform="matrix(0.05,0,0,0.05,194.2,0)" xlink:href="#aV"/><use transform="matrix(0.05,0,0,0.05,198.14999999999998,0)" xlink:href="#aE"/></g><g id="X"><use transform="matrix(0.05,0,0,0.05,0,0)" xlink:href="#aL"/><use transform="matrix(0.05,0,0,0.05,10.5,0)" xlink:href="#bd"/><use transform="matrix(0.05,0,0,0.05,19.5,0)" xlink:href="#aE"/><use transform="matrix(0.05,0,0,0.05,29.5,0)" xlink:href="#aI"/><use transform="matrix(0.05,0,0,0.05,35.45,0)" xlink:href="#aH"/><use transform="matrix(0.05,0,0,0.05,40.45,0)" xlink:href="#aK"/><use transform="matrix(0.05,0,0,0.05,44.400000000000006,0)" xlink:href="#aZ"/><use transform="matrix(0.05,0,0,0.05,49.400000000000006,0)" xlink:href="#aK"/><use transform="matrix(0.05,0,0,0.05,53.35,0)" xlink:href="#bd"/><use transform="matrix(0.05,0,0,0.05,62.35,0)" xlink:href="#aC"/><use transform="matrix(0.05,0,0,0.05,72.35000000000001,0)" xlink:href="#aH"/><use transform="matrix(0.05,0,0,0.05,77.35000000000001,0)" xlink:href="#aK"/><use transform="matrix(0.05,0,0,0.05,81.30000000000001,0)" xlink:href="#aW"/><use transform="matrix(0.05,0,0,0.05,91.30000000000001,0)" xlink:href="#aB"/></g><g id="Y"><use transform="matrix(0.05,0,0,0.05,0,0)" xlink:href="#aJ"/><use transform="matrix(0.05,0,0,0.05,10,0)" xlink:href="#aI"/><use transform="matrix(0.05,0,0,0.05,15.949999999999998,0)" xlink:href="#aC"/><use transform="matrix(0.05,0,0,0.05,25.950000000000003,0)" xlink:href="#aT"/><use transform="matrix(0.05,0,0,0.05,35.95,0)" xlink:href="#aE"/><use transform="matrix(0.05,0,0,0.05,45.95,0)" xlink:href="#aN"/><use transform="matrix(0.05,0,0,0.05,51.900000000000006,0)" xlink:href="#aK"/><use transform="matrix(0.05,0,0,0.05,55.85,0)" xlink:href="#aB"/></g><g id="Z"><use transform="matrix(0.05,0,0,0.05,0,0)" xlink:href="#aI"/><use transform="matrix(0.05,0,0,0.05,5.95,0)" xlink:href="#aK"/><use transform="matrix(0.05,0,0,0.05,9.9,0)" xlink:href="#aJ"/><use transform="matrix(0.05,0,0,0.05,19.9,0)" xlink:href="#be"/><use transform="matrix(0.05,0,0,0.05,29.899999999999995,0)" xlink:href="#aH"/><use transform="matrix(0.05,0,0,0.05,34.9,0)" xlink:href="#aM"/><use transform="matrix(0.05,0,0,0.05,44.9,0)" xlink:href="#bd"/><use transform="matrix(0.05,0,0,0.05,53.900000000000006,0)" xlink:href="#aW"/><use transform="matrix(0.05,0,0,0.05,63.900000000000006,0)" xlink:href="#aY"/><use transform="matrix(0.05,0,0,0.05,73.9,0)" xlink:href="#aB"/><use transform="matrix(0.05,0,0,0.05,83.9,0)" xlink:href="#aH"/><use transform="matrix(0.05,0,0,0.05,88.9,0)" xlink:href="#aF"/></g><g id="aa"><use transform="matrix(0.05,0,0,0.05,0,0)" xlink:href="#aK"/><use transform="matrix(0.05,0,0,0.05,3.95,0)" xlink:href="#aB"/><use transform="matrix(0.05,0,0,0.05,13.949999999999998,0)" xlink:href="#aH"/><use transform="matrix(0.05,0,0,0.05,18.95,0)" xlink:href="#aO"/><use transform="matrix(0.05,0,0,0.05,24.9,0)" xlink:href="#aF"/></g><g id="ab"><use transform="matrix(0.05,0,0,0.05,0,0)" xlink:href="#aK"/><use transform="matrix(0.05,0,0,0.05,3.95,0)" xlink:href="#aB"/><use transform="matrix(0.05,0,0,0.05,13.949999999999998,0)" xlink:href="#aH"/></g><path fill="#333" d="M24-248c120-7 223 5 221 122C244-46 201 0 124 0H24v-248zM76-40c74 7 117-18 117-86 0-67-45-88-117-82v168" id="bA"/><path fill="#333" d="M25 0v-261h50V0H25" id="bB"/><g id="ac"><use transform="matrix(0.05,0,0,0.05,0,0)" xlink:href="#bA"/><use transform="matrix(0.05,0,0,0.05,12.950000000000001,0)" xlink:href="#bn"/><use transform="matrix(0.05,0,0,0.05,17.950000000000003,0)" xlink:href="#bt"/><use transform="matrix(0.05,0,0,0.05,28.900000000000006,0)" xlink:href="#bB"/><use transform="matrix(0.05,0,0,0.05,33.900000000000006,0)" xlink:href="#bo"/><use transform="matrix(0.05,0,0,0.05,44.85000000000001,0)" xlink:href="#ax"/><use transform="matrix(0.05,0,0,0.05,60.85,0)" xlink:href="#ay"/></g><g id="ad"><use transform="matrix(0.05,0,0,0.05,0,0)" xlink:href="#aA"/><use transform="matrix(0.05,0,0,0.05,10,0)" xlink:href="#aH"/><use transform="matrix(0.05,0,0,0.05,15,0)" xlink:href="#aK"/><use transform="matrix(0.05,0,0,0.05,18.95,0)" xlink:href="#aH"/><use transform="matrix(0.05,0,0,0.05,23.95,0)" xlink:href="#aV"/><use transform="matrix(0.05,0,0,0.05,27.899999999999995,0)" xlink:href="#aE"/><use transform="matrix(0.05,0,0,0.05,37.9,0)" xlink:href="#aF"/><use transform="matrix(0.05,0,0,0.05,42.9,0)" xlink:href="#aG"/><use transform="matrix(0.05,0,0,0.05,51.900000000000006,0)" xlink:href="#aH"/><use transform="matrix(0.05,0,0,0.05,56.900000000000006,0)" xlink:href="#aI"/></g><g id="ae"><use transform="matrix(0.05,0,0,0.05,0,0)" xlink:href="#aA"/><use transform="matrix(0.05,0,0,0.05,10,0)" xlink:href="#aU"/><use transform="matrix(0.05,0,0,0.05,20,0)" xlink:href="#aC"/><use transform="matrix(0.05,0,0,0.05,30,0)" xlink:href="#aJ"/><use transform="matrix(0.05,0,0,0.05,40,0)" xlink:href="#aE"/><use transform="matrix(0.05,0,0,0.05,50,0)" xlink:href="#aG"/><use transform="matrix(0.05,0,0,0.05,59,0)" xlink:href="#aF"/><use transform="matrix(0.05,0,0,0.05,64,0)" xlink:href="#aK"/><use transform="matrix(0.05,0,0,0.05,67.95,0)" xlink:href="#aB"/><use transform="matrix(0.05,0,0,0.05,77.95,0)" xlink:href="#aH"/></g><g id="af"><use transform="matrix(0.05,0,0,0.05,0,0)" xlink:href="#aA"/><use transform="matrix(0.05,0,0,0.05,10,0)" xlink:href="#bd"/><use transform="matrix(0.05,0,0,0.05,19,0)" xlink:href="#aW"/><use transform="matrix(0.05,0,0,0.05,29,0)" xlink:href="#aY"/><use transform="matrix(0.05,0,0,0.05,39,0)" xlink:href="#aB"/><use transform="matrix(0.05,0,0,0.05,49,0)" xlink:href="#aH"/><use transform="matrix(0.05,0,0,0.05,54,0)" xlink:href="#aM"/><use transform="matrix(0.05,0,0,0.05,64,0)" xlink:href="#aG"/><use transform="matrix(0.05,0,0,0.05,73,0)" xlink:href="#aW"/><use transform="matrix(0.05,0,0,0.05,83,0)" xlink:href="#aY"/><use transform="matrix(0.05,0,0,0.05,93,0)" xlink:href="#aI"/><use transform="matrix(0.05,0,0,0.05,98.95,0)" xlink:href="#bd"/><use transform="matrix(0.05,0,0,0.05,107.95,0)" xlink:href="#aE"/><use transform="matrix(0.05,0,0,0.05,117.95,0)" xlink:href="#aG"/><use transform="matrix(0.05,0,0,0.05,126.95,0)" xlink:href="#aF"/><use transform="matrix(0.05,0,0,0.05,131.95,0)" xlink:href="#aK"/><use transform="matrix(0.05,0,0,0.05,135.89999999999998,0)" xlink:href="#aB"/><use transform="matrix(0.05,0,0,0.05,145.89999999999998,0)" xlink:href="#aH"/></g><path fill="#333" d="M115-194c53 0 69 39 70 98 0 66-23 100-70 100C84 3 66-7 56-30L54 0H23l1-261h32v101c10-23 28-34 59-34zm-8 174c40 0 45-34 45-75 0-40-5-75-45-74-42 0-51 32-51 76 0 43 10 73 51 73" id="bC"/><g id="ag"><use transform="matrix(0.05,0,0,0.05,0,0)" xlink:href="#aA"/><use transform="matrix(0.05,0,0,0.05,10,0)" xlink:href="#bd"/><use transform="matrix(0.05,0,0,0.05,19,0)" xlink:href="#be"/><use transform="matrix(0.05,0,0,0.05,29,0)" xlink:href="#aE"/><use transform="matrix(0.05,0,0,0.05,39,0)" xlink:href="#bd"/><use transform="matrix(0.05,0,0,0.05,48,0)" xlink:href="#bx"/><use transform="matrix(0.05,0,0,0.05,57,0)" xlink:href="#aE"/><use transform="matrix(0.05,0,0,0.05,67,0)" xlink:href="#aT"/><use transform="matrix(0.05,0,0,0.05,77,0)" xlink:href="#aF"/><use transform="matrix(0.05,0,0,0.05,82,0)" xlink:href="#bC"/><use transform="matrix(0.05,0,0,0.05,92,0)" xlink:href="#aW"/><use transform="matrix(0.05,0,0,0.05,102,0)" xlink:href="#aW"/><use transform="matrix(0.05,0,0,0.05,112,0)" xlink:href="#aV"/><use transform="matrix(0.05,0,0,0.05,115.95,0)" xlink:href="#aE"/><use transform="matrix(0.05,0,0,0.05,125.95,0)" xlink:href="#aC"/><use transform="matrix(0.05,0,0,0.05,135.95,0)" xlink:href="#aB"/></g><path fill="#333" d="M63-220v92h138v28H63V0H30v-248h175v28H63" id="bD"/><g id="ah"><use transform="matrix(0.05,0,0,0.05,0,0)" xlink:href="#bD"/><use transform="matrix(0.05,0,0,0.05,10.950000000000001,0)" xlink:href="#aC"/><use transform="matrix(0.05,0,0,0.05,20.950000000000003,0)" xlink:href="#aV"/><use transform="matrix(0.05,0,0,0.05,24.900000000000002,0)" xlink:href="#aG"/><use transform="matrix(0.05,0,0,0.05,33.900000000000006,0)" xlink:href="#aE"/></g><g id="ai"><use transform="matrix(0.05,0,0,0.05,0,0)" xlink:href="#aL"/><use transform="matrix(0.05,0,0,0.05,10.5,0)" xlink:href="#aJ"/><use transform="matrix(0.05,0,0,0.05,20.5,0)" xlink:href="#aE"/><use transform="matrix(0.05,0,0,0.05,30.5,0)" xlink:href="#aH"/><use transform="matrix(0.05,0,0,0.05,35.5,0)" xlink:href="#aM"/><use transform="matrix(0.05,0,0,0.05,45.5,0)" xlink:href="#aH"/><use transform="matrix(0.05,0,0,0.05,50.5,0)" xlink:href="#aK"/><use transform="matrix(0.05,0,0,0.05,54.45,0)" xlink:href="#aH"/><use transform="matrix(0.05,0,0,0.05,59.45,0)" xlink:href="#aV"/><use transform="matrix(0.05,0,0,0.05,63.400000000000006,0)" xlink:href="#aE"/><use transform="matrix(0.05,0,0,0.05,73.4,0)" xlink:href="#aN"/><use transform="matrix(0.05,0,0,0.05,79.35000000000001,0)" xlink:href="#aO"/><use transform="matrix(0.05,0,0,0.05,85.30000000000001,0)" xlink:href="#aF"/><use transform="matrix(0.05,0,0,0.05,90.30000000000001,0)" xlink:href="#aG"/><use transform="matrix(0.05,0,0,0.05,99.30000000000001,0)" xlink:href="#aH"/><use transform="matrix(0.05,0,0,0.05,104.30000000000001,0)" xlink:href="#aI"/></g><g id="aj"><use transform="matrix(0.05,0,0,0.05,0,0)" xlink:href="#aL"/><use transform="matrix(0.05,0,0,0.05,10.5,0)" xlink:href="#aJ"/><use transform="matrix(0.05,0,0,0.05,20.5,0)" xlink:href="#aE"/><use transform="matrix(0.05,0,0,0.05,30.5,0)" xlink:href="#aH"/><use transform="matrix(0.05,0,0,0.05,35.5,0)" xlink:href="#aM"/><use transform="matrix(0.05,0,0,0.05,45.5,0)" xlink:href="#aU"/><use transform="matrix(0.05,0,0,0.05,55.5,0)" xlink:href="#aC"/><use transform="matrix(0.05,0,0,0.05,65.5,0)" xlink:href="#aJ"/><use transform="matrix(0.05,0,0,0.05,75.5,0)" xlink:href="#aE"/><use transform="matrix(0.05,0,0,0.05,85.5,0)" xlink:href="#aG"/><use transform="matrix(0.05,0,0,0.05,94.5,0)" xlink:href="#aN"/><use transform="matrix(0.05,0,0,0.05,100.45,0)" xlink:href="#aO"/><use transform="matrix(0.05,0,0,0.05,106.4,0)" xlink:href="#aF"/><use transform="matrix(0.05,0,0,0.05,111.4,0)" xlink:href="#aK"/><use transform="matrix(0.05,0,0,0.05,115.35000000000001,0)" xlink:href="#aB"/><use transform="matrix(0.05,0,0,0.05,125.35000000000001,0)" xlink:href="#aH"/></g><g id="ak"><use transform="matrix(0.05,0,0,0.05,0,0)" xlink:href="#aL"/><use transform="matrix(0.05,0,0,0.05,10.5,0)" xlink:href="#aJ"/><use transform="matrix(0.05,0,0,0.05,20.5,0)" xlink:href="#aE"/><use transform="matrix(0.05,0,0,0.05,30.5,0)" xlink:href="#aH"/><use transform="matrix(0.05,0,0,0.05,35.5,0)" xlink:href="#aM"/><use transform="matrix(0.05,0,0,0.05,45.5,0)" xlink:href="#bd"/><use transform="matrix(0.05,0,0,0.05,54.5,0)" xlink:href="#aW"/><use transform="matrix(0.05,0,0,0.05,64.5,0)" xlink:href="#aY"/><use transform="matrix(0.05,0,0,0.05,74.5,0)" xlink:href="#aB"/><use transform="matrix(0.05,0,0,0.05,84.5,0)" xlink:href="#aH"/><use transform="matrix(0.05,0,0,0.05,89.5,0)" xlink:href="#aM"/><use transform="matrix(0.05,0,0,0.05,99.5,0)" xlink:href="#aG"/><use transform="matrix(0.05,0,0,0.05,108.5,0)" xlink:href="#aW"/><use transform="matrix(0.05,0,0,0.05,118.5,0)" xlink:href="#aY"/><use transform="matrix(0.05,0,0,0.05,128.5,0)" xlink:href="#aI"/><use transform="matrix(0.05,0,0,0.05,134.45,0)" xlink:href="#bd"/><use transform="matrix(0.05,0,0,0.05,143.45,0)" xlink:href="#aE"/><use transform="matrix(0.05,0,0,0.05,153.45,0)" xlink:href="#aG"/><use transform="matrix(0.05,0,0,0.05,162.45,0)" xlink:href="#aN"/><use transform="matrix(0.05,0,0,0.05,168.39999999999998,0)" xlink:href="#aO"/><use transform="matrix(0.05,0,0,0.05,174.34999999999997,0)" xlink:href="#aF"/><use transform="matrix(0.05,0,0,0.05,179.34999999999997,0)" xlink:href="#aK"/><use transform="matrix(0.05,0,0,0.05,183.29999999999995,0)" xlink:href="#aB"/><use transform="matrix(0.05,0,0,0.05,193.29999999999995,0)" xlink:href="#aH"/></g><g id="al"><use transform="matrix(0.05,0,0,0.05,0,0)" xlink:href="#aL"/><use transform="matrix(0.05,0,0,0.05,10.5,0)" xlink:href="#aJ"/><use transform="matrix(0.05,0,0,0.05,20.5,0)" xlink:href="#aE"/><use transform="matrix(0.05,0,0,0.05,30.5,0)" xlink:href="#aH"/><use transform="matrix(0.05,0,0,0.05,35.5,0)" xlink:href="#aM"/><use transform="matrix(0.05,0,0,0.05,45.5,0)" xlink:href="#bd"/><use transform="matrix(0.05,0,0,0.05,54.5,0)" xlink:href="#be"/><use transform="matrix(0.05,0,0,0.05,64.5,0)" xlink:href="#aE"/><use transform="matrix(0.05,0,0,0.05,74.5,0)" xlink:href="#bd"/><use transform="matrix(0.05,0,0,0.05,83.5,0)" xlink:href="#bx"/><use transform="matrix(0.05,0,0,0.05,92.5,0)" xlink:href="#aE"/><use transform="matrix(0.05,0,0,0.05,102.5,0)" xlink:href="#aT"/><use transform="matrix(0.05,0,0,0.05,112.5,0)" xlink:href="#aN"/><use transform="matrix(0.05,0,0,0.05,118.45,0)" xlink:href="#aO"/><use transform="matrix(0.05,0,0,0.05,124.4,0)" xlink:href="#aF"/><use transform="matrix(0.05,0,0,0.05,129.4,0)" xlink:href="#bC"/><use transform="matrix(0.05,0,0,0.05,139.4,0)" xlink:href="#aW"/><use transform="matrix(0.05,0,0,0.05,149.4,0)" xlink:href="#aW"/><use transform="matrix(0.05,0,0,0.05,159.4,0)" xlink:href="#aV"/><use transform="matrix(0.05,0,0,0.05,163.35,0)" xlink:href="#aE"/><use transform="matrix(0.05,0,0,0.05,173.35,0)" xlink:href="#aC"/><use transform="matrix(0.05,0,0,0.05,183.35,0)" xlink:href="#aB"/></g><g id="am"><use transform="matrix(0.05,0,0,0.05,0,0)" xlink:href="#aL"/><use transform="matrix(0.05,0,0,0.05,10.5,0)" xlink:href="#aG"/><use transform="matrix(0.05,0,0,0.05,19.5,0)" xlink:href="#aE"/><use transform="matrix(0.05,0,0,0.05,29.5,0)" xlink:href="#aH"/><use transform="matrix(0.05,0,0,0.05,34.5,0)" xlink:href="#aM"/><use transform="matrix(0.05,0,0,0.05,44.5,0)" xlink:href="#bd"/><use transform="matrix(0.05,0,0,0.05,53.5,0)" xlink:href="#be"/><use transform="matrix(0.05,0,0,0.05,63.5,0)" xlink:href="#aE"/><use transform="matrix(0.05,0,0,0.05,73.5,0)" xlink:href="#bd"/><use transform="matrix(0.05,0,0,0.05,82.5,0)" xlink:href="#bx"/><use transform="matrix(0.05,0,0,0.05,91.5,0)" xlink:href="#aE"/><use transform="matrix(0.05,0,0,0.05,101.5,0)" xlink:href="#aT"/><use transform="matrix(0.05,0,0,0.05,111.5,0)" xlink:href="#aM"/><use transform="matrix(0.05,0,0,0.05,121.5,0)" xlink:href="#aH"/><use transform="matrix(0.05,0,0,0.05,126.5,0)" xlink:href="#aI"/><use transform="matrix(0.05,0,0,0.05,132.45,0)" xlink:href="#aY"/><use transform="matrix(0.05,0,0,0.05,142.45,0)" xlink:href="#aE"/><use transform="matrix(0.05,0,0,0.05,152.45,0)" xlink:href="#aN"/><use transform="matrix(0.05,0,0,0.05,158.39999999999998,0)" xlink:href="#aO"/></g><g id="an"><use transform="matrix(0.05,0,0,0.05,0,0)" xlink:href="#aL"/><use transform="matrix(0.05,0,0,0.05,10.5,0)" xlink:href="#aG"/><use transform="matrix(0.05,0,0,0.05,19.5,0)" xlink:href="#aE"/><use transform="matrix(0.05,0,0,0.05,29.5,0)" xlink:href="#aH"/><use transform="matrix(0.05,0,0,0.05,34.5,0)" xlink:href="#aM"/><use transform="matrix(0.05,0,0,0.05,44.5,0)" xlink:href="#aD"/><use transform="matrix(0.05,0,0,0.05,59.45,0)" xlink:href="#aW"/><use transform="matrix(0.05,0,0,0.05,69.45,0)" xlink:href="#aI"/><use transform="matrix(0.05,0,0,0.05,75.4,0)" xlink:href="#aE"/><use transform="matrix(0.05,0,0,0.05,85.4,0)" xlink:href="#aM"/><use transform="matrix(0.05,0,0,0.05,95.4,0)" xlink:href="#aU"/><use transform="matrix(0.05,0,0,0.05,105.4,0)" xlink:href="#aC"/><use transform="matrix(0.05,0,0,0.05,115.4,0)" xlink:href="#aJ"/><use transform="matrix(0.05,0,0,0.05,125.4,0)" xlink:href="#aE"/><use transform="matrix(0.05,0,0,0.05,135.4,0)" xlink:href="#aG"/><use transform="matrix(0.05,0,0,0.05,144.4,0)" xlink:href="#aN"/><use transform="matrix(0.05,0,0,0.05,150.35,0)" xlink:href="#aO"/><use transform="matrix(0.05,0,0,0.05,156.29999999999998,0)" xlink:href="#aF"/><use transform="matrix(0.05,0,0,0.05,161.29999999999998,0)" xlink:href="#aK"/><use transform="matrix(0.05,0,0,0.05,165.24999999999997,0)" xlink:href="#aB"/><use transform="matrix(0.05,0,0,0.05,175.24999999999997,0)" xlink:href="#aH"/></g><g id="ao"><use transform="matrix(0.05,0,0,0.05,0,0)" xlink:href="#aL"/><use transform="matrix(0.05,0,0,0.05,10.5,0)" xlink:href="#aG"/><use transform="matrix(0.05,0,0,0.05,19.5,0)" xlink:href="#aE"/><use transform="matrix(0.05,0,0,0.05,29.5,0)" xlink:href="#aH"/><use transform="matrix(0.05,0,0,0.05,34.5,0)" xlink:href="#aM"/><use transform="matrix(0.05,0,0,0.05,44.5,0)" xlink:href="#aD"/><use transform="matrix(0.05,0,0,0.05,59.45,0)" xlink:href="#aW"/><use transform="matrix(0.05,0,0,0.05,69.45,0)" xlink:href="#aI"/><use transform="matrix(0.05,0,0,0.05,75.4,0)" xlink:href="#aE"/><use transform="matrix(0.05,0,0,0.05,85.4,0)" xlink:href="#aM"/><use transform="matrix(0.05,0,0,0.05,95.4,0)" xlink:href="#aG"/><use transform="matrix(0.05,0,0,0.05,104.4,0)" xlink:href="#aW"/><use transform="matrix(0.05,0,0,0.05,114.4,0)" xlink:href="#aY"/><use transform="matrix(0.05,0,0,0.05,124.4,0)" xlink:href="#aI"/><use transform="matrix(0.05,0,0,0.05,130.35,0)" xlink:href="#bd"/><use transform="matrix(0.05,0,0,0.05,139.35,0)" xlink:href="#aE"/><use transform="matrix(0.05,0,0,0.05,149.35,0)" xlink:href="#aG"/><use transform="matrix(0.05,0,0,0.05,158.35,0)" xlink:href="#aN"/><use transform="matrix(0.05,0,0,0.05,164.29999999999998,0)" xlink:href="#aO"/><use transform="matrix(0.05,0,0,0.05,170.24999999999997,0)" xlink:href="#aF"/><use transform="matrix(0.05,0,0,0.05,175.24999999999997,0)" xlink:href="#aK"/><use transform="matrix(0.05,0,0,0.05,179.19999999999996,0)" xlink:href="#aB"/><use transform="matrix(0.05,0,0,0.05,189.19999999999996,0)" xlink:href="#aH"/></g><g id="ap"><use transform="matrix(0.05,0,0,0.05,0,0)" xlink:href="#aL"/><use transform="matrix(0.05,0,0,0.05,10.5,0)" xlink:href="#aJ"/><use transform="matrix(0.05,0,0,0.05,20.5,0)" xlink:href="#aE"/><use transform="matrix(0.05,0,0,0.05,30.5,0)" xlink:href="#aH"/><use transform="matrix(0.05,0,0,0.05,35.5,0)" xlink:href="#aM"/><use transform="matrix(0.05,0,0,0.05,45.5,0)" xlink:href="#aK"/><use transform="matrix(0.05,0,0,0.05,49.45,0)" xlink:href="#aB"/><use transform="matrix(0.05,0,0,0.05,59.45,0)" xlink:href="#aZ"/><use transform="matrix(0.05,0,0,0.05,64.45,0)" xlink:href="#aW"/><use transform="matrix(0.05,0,0,0.05,74.45,0)" xlink:href="#aN"/><use transform="matrix(0.05,0,0,0.05,80.4,0)" xlink:href="#aO"/></g><path d="M127-220V0H93v-220H8v-28h204v28h-85" id="bE"/><path d="M100-194c63 0 86 42 84 106H49c0 40 14 67 53 68 26 1 43-12 49-29l28 8c-11 28-37 45-77 45C44 4 14-33 15-96c1-61 26-98 85-98zm52 81c6-60-76-77-97-28-3 7-6 17-6 28h103" id="bF"/><path d="M141-36C126-15 110 5 73 4 37 3 15-17 15-53c-1-64 63-63 125-63 3-35-9-54-41-54-24 1-41 7-42 31l-33-3c5-37 33-52 76-52 45 0 72 20 72 64v82c-1 20 7 32 28 27v20c-31 9-61-2-59-35zM48-53c0 20 12 33 32 33 41-3 63-29 60-74-43 2-92-5-92 41" id="bG"/><path d="M96-169c-40 0-48 33-48 73s9 75 48 75c24 0 41-14 43-38l32 2c-6 37-31 61-74 61-59 0-76-41-82-99-10-93 101-131 147-64 4 7 5 14 7 22l-32 3c-4-21-16-35-41-35" id="bH"/><path d="M106-169C34-169 62-67 57 0H25v-261h32l-1 103c12-21 28-36 61-36 89 0 53 116 60 194h-32v-121c2-32-8-49-39-48" id="bI"/><path d="M135-143c-3-34-86-38-87 0 15 53 115 12 119 90S17 21 10-45l28-5c4 36 97 45 98 0-10-56-113-15-118-90-4-57 82-63 122-42 12 7 21 19 24 35" id="bJ"/><g id="aq"><use transform="matrix(0.06172839506172839,0,0,0.06172839506172839,0,0)" xlink:href="#bE"/><use transform="matrix(0.06172839506172839,0,0,0.06172839506172839,11.049382716049381,0)" xlink:href="#bF"/><use transform="matrix(0.06172839506172839,0,0,0.06172839506172839,23.39506172839506,0)" xlink:href="#bG"/><use transform="matrix(0.06172839506172839,0,0,0.06172839506172839,35.74074074074074,0)" xlink:href="#bH"/><use transform="matrix(0.06172839506172839,0,0,0.06172839506172839,46.85185185185185,0)" xlink:href="#bI"/><use transform="matrix(0.06172839506172839,0,0,0.06172839506172839,59.197530864197525,0)" xlink:href="#bF"/><use transform="matrix(0.06172839506172839,0,0,0.06172839506172839,71.5432098765432,0)" xlink:href="#bJ"/></g><path d="M30 0v-248h33v221h125V0H30" id="bK"/><path d="M114-163C36-179 61-72 57 0H25l-1-190h30c1 12-1 29 2 39 6-27 23-49 58-41v29" id="bL"/><path d="M117-194c89-4 53 116 60 194h-32v-121c0-31-8-49-39-48C34-167 62-67 57 0H25l-1-190h30c1 10-1 24 2 32 11-22 29-35 61-36" id="bM"/><g id="ar"><use transform="matrix(0.06172839506172839,0,0,0.06172839506172839,0,0)" xlink:href="#bK"/><use transform="matrix(0.06172839506172839,0,0,0.06172839506172839,12.345679012345679,0)" xlink:href="#bF"/><use transform="matrix(0.06172839506172839,0,0,0.06172839506172839,24.691358024691358,0)" xlink:href="#bG"/><use transform="matrix(0.06172839506172839,0,0,0.06172839506172839,37.03703703703704,0)" xlink:href="#bL"/><use transform="matrix(0.06172839506172839,0,0,0.06172839506172839,44.382716049382715,0)" xlink:href="#bM"/><use transform="matrix(0.06172839506172839,0,0,0.06172839506172839,56.72839506172839,0)" xlink:href="#bJ"/></g><path d="M101-234c-31-9-42 10-38 44h38v23H63V0H32v-167H5v-23h27c-7-52 17-82 69-68v24" id="bN"/><path d="M100-194c62-1 85 37 85 99 1 63-27 99-86 99S16-35 15-95c0-66 28-99 85-99zM99-20c44 1 53-31 53-75 0-43-8-75-51-75s-53 32-53 75 10 74 51 75" id="bO"/><path d="M210-169c-67 3-38 105-44 169h-31v-121c0-29-5-50-35-48C34-165 62-65 56 0H25l-1-190h30c1 10-1 24 2 32 10-44 99-50 107 0 11-21 27-35 58-36 85-2 47 119 55 194h-31v-121c0-29-5-49-35-48" id="bP"/><g id="as"><use transform="matrix(0.06172839506172839,0,0,0.06172839506172839,0,0)" xlink:href="#bN"/><use transform="matrix(0.06172839506172839,0,0,0.06172839506172839,6.172839506172839,0)" xlink:href="#bL"/><use transform="matrix(0.06172839506172839,0,0,0.06172839506172839,13.518518518518519,0)" xlink:href="#bO"/><use transform="matrix(0.06172839506172839,0,0,0.06172839506172839,25.864197530864196,0)" xlink:href="#bP"/></g><path d="M27 0v-27h64v-190l-56 39v-29l58-41h29v221h61V0H27" id="bQ"/><use transform="matrix(0.06172839506172839,0,0,0.06172839506172839,0,0)" xlink:href="#bQ" id="at"/><path d="M80-196l47-18 7 23-49 13 32 44-20 13-27-46-27 45-21-12 33-44-49-13 8-23 47 19-2-53h23" id="bR"/><use transform="matrix(0.06172839506172839,0,0,0.06172839506172839,0,0)" xlink:href="#bR" id="au"/></defs></g></svg>